# Object Export From Tinkercad Server 2015

mtllib obj.mtl

o obj_0
v -59 		73 		18
v -59 		73 		-2
v -59 		-31 		-2
v -59 		-31 		18
v -21.3764 		-31 		18
v -44.082 		30.356 		18
v -44.063 		23.942 		18
v -43.607 		17.148 		18
v -42.719 		10.092 		18
v -41.415 		2.894 		18
v -41.002 		30.929 		18
v -36.7475 		54.2394 		-2
v -56.003 		70.003 		18
v -36.7475 		54.2394 		18
v -39.872 		50.165 		-2
v -37.839 		53.231 		-2
v -23.65 		-27.67 		18
v -56.003 		-28.003 		18
v 17.998 		73 		-2
v 15.003 		62.002 		-2
v 15.003 		70.003 		-2
v -23.65 		-27.67 		-2
v -21.3764 		-31 		-2
v -27.694 		-20.728 		-2
v -31.303 		-13.42 		-2
v -34.415 		-5.873 		-2
v -43.661 		36.282 		-2
v -42.808 		41.618 		-2
v -41.538 		46.272 		-2
v -31.0809 		-28.003 		-2
v -23.002 		59.002 		18
v -22.2894 		59.002 		18
v -19.615 		59.215 		18
v -41.415 		2.894 		-2
v -42.719 		10.092 		-2
v -43.607 		17.148 		-2
v -44.063 		23.942 		-2
v -44.082 		30.356 		-2
v -41.002 		30.929 		-2
v -23.997 		58.866 		18
v -32.587 		-24.865 		-2
v -23.002 		58.9452 		18
v -35.266 		-18.323 		-2
v -37.657 		-11.436 		-2
v -39.718 		-4.324 		-2
v -56.003 		70.003 		-2
v -56.003 		-28.003 		-2
v -18.0908 		59.002 		18
v -36.977 		1.786 		-2
v -38.945 		9.425 		-2
v -40.285 		16.913 		-2
v -27.694 		-20.728 		18
v -31.303 		-13.42 		18
v -34.415 		-5.873 		18
v -31.0809 		-28.003 		18
v 17.998 		73 		18
v 17.998 		59.002 		18
v 15.003 		70.003 		18
v -39.718 		-4.324 		18
v -37.657 		-11.436 		18
v -35.266 		-18.323 		18
v -32.587 		-24.865 		18
v -29.064 		62.002 		18
v -36.977 		1.786 		18
v -38.945 		9.425 		18
v -40.285 		16.913 		18
v -40.975 		24.122 		18
v 15.003 		62.002 		18
v -40.367 		37.217 		18
v -29.064 		62.002 		-2
v -41.538 		46.272 		18
v -42.808 		41.618 		18
v -43.661 		36.282 		18
v -39.079 		42.879 		18
v -37.162 		47.818 		18
v -34.647 		51.949 		18
v -31.579 		55.202 		18
v -40.975 		24.122 		-2
v -28.008 		57.521 		18
v -40.367 		37.217 		-2
v -37.839 		53.231 		18
v -39.079 		42.879 		-2
v -39.872 		50.165 		18
v -37.162 		47.818 		-2
v -34.647 		51.949 		-2
v -31.579 		55.202 		-2
v -28.008 		57.521 		-2
v -23.997 		58.866 		-2
v -19.615 		59.215 		-2
v -22.2894 		59.002 		-2
v -23.002 		58.9452 		-2
v -23.002 		59.002 		-2
v -18.0908 		59.002 		-2
v 17.998 		59.002 		-2
# 94 vertices

g group_0_12568524

usemtl color_12568524
s 0

f 1 	2 	3
f 1 	3 	4
f 8 	67 	7
f 9 	66 	8
f 10 	65 	9
f 7 	67 	6
f 1 	4 	13
f 18 	13 	4
f 21 	19 	20
f 94 	20 	19
f 24 	22 	30
f 30 	41 	24
f 76 	77 	14
f 29 	82 	28
f 80 	28 	82
f 27 	28 	80
f 30 	22 	23
f 33 	63 	32
f 37 	38 	78
f 36 	37 	78
f 39 	78 	38
f 27 	39 	38
f 78 	51 	36
f 42 	31 	40
f 63 	40 	31
f 31 	32 	63
f 21 	46 	19
f 41 	43 	24
f 25 	24 	43
f 43 	44 	25
f 26 	25 	44
f 26 	44 	45
f 14 	77 	63
f 23 	3 	30
f 47 	30 	3
f 47 	3 	46
f 2 	46 	3
f 26 	45 	49
f 4 	23 	5
f 62 	55 	52
f 23 	4 	3
f 59 	60 	54
f 53 	61 	52
f 17 	55 	5
f 1 	56 	19
f 17 	52 	55
f 1 	19 	2
f 22 	17 	5
f 22 	5 	23
f 24 	52 	17
f 24 	17 	22
f 62 	52 	61
f 60 	61 	53
f 53 	54 	60
f 4 	5 	55
f 54 	64 	59
f 25 	53 	52
f 25 	52 	24
f 55 	18 	4
f 26 	54 	53
f 26 	53 	25
f 48 	68 	33
f 65 	10 	64
f 66 	9 	65
f 63 	33 	68
f 67 	8 	66
f 59 	64 	10
f 57 	68 	48
f 11 	6 	67
f 1 	13 	56
f 58 	56 	13
f 58 	68 	56
f 57 	56 	68
f 56 	57 	94
f 56 	94 	19
f 69 	73 	11
f 74 	72 	69
f 63 	68 	70
f 72 	74 	71
f 6 	11 	73
f 73 	69 	72
f 75 	71 	74
f 76 	81 	75
f 20 	70 	68
f 34 	35 	50
f 50 	49 	34
f 45 	34 	49
f 51 	50 	35
f 35 	36 	51
f 58 	13 	21
f 46 	21 	13
f 20 	68 	58
f 20 	58 	21
f 80 	39 	27
f 71 	75 	83
f 83 	75 	81
f 79 	63 	77
f 81 	76 	14
f 28 	72 	71
f 28 	71 	29
f 40 	63 	79
f 27 	73 	72
f 27 	72 	28
f 82 	29 	84
f 27 	6 	73
f 38 	6 	27
f 16 	81 	14
f 16 	14 	12
f 15 	16 	84
f 29 	15 	84
f 6 	38 	37
f 6 	37 	7
f 15 	83 	81
f 15 	81 	16
f 36 	8 	7
f 36 	7 	37
f 35 	9 	8
f 35 	8 	36
f 71 	83 	15
f 34 	10 	9
f 34 	9 	35
f 88 	40 	79
f 88 	79 	87
f 12 	85 	16
f 85 	84 	16
f 87 	86 	70
f 55 	30 	18
f 46 	13 	18
f 46 	18 	47
f 12 	70 	86
f 89 	33 	32
f 89 	32 	90
f 44 	60 	59
f 44 	59 	45
f 91 	42 	40
f 91 	40 	88
f 43 	61 	60
f 43 	60 	44
f 31 	92 	90
f 31 	90 	32
f 41 	62 	61
f 41 	61 	43
f 85 	12 	86
f 92 	31 	42
f 92 	42 	91
f 30 	55 	62
f 30 	62 	41
f 92 	70 	90
f 47 	18 	30
f 70 	12 	63
f 14 	63 	12
f 91 	88 	92
f 88 	87 	70
f 92 	88 	70
f 49 	64 	54
f 49 	54 	26
f 93 	48 	33
f 93 	33 	89
f 50 	65 	64
f 50 	64 	49
f 51 	66 	65
f 51 	65 	50
f 78 	67 	66
f 78 	66 	51
f 10 	34 	59
f 67 	78 	39
f 67 	39 	11
f 48 	93 	94
f 45 	59 	34
f 93 	89 	20
f 48 	94 	57
f 11 	39 	69
f 80 	69 	39
f 82 	74 	69
f 82 	69 	80
f 84 	75 	74
f 84 	74 	82
f 70 	20 	89
f 89 	90 	70
f 94 	93 	20
f 85 	76 	75
f 85 	75 	84
f 76 	86 	77
f 2 	19 	46
f 86 	76 	85
f 71 	15 	29
f 87 	79 	77
f 87 	77 	86
# 188 faces

 #end of obj_0

