# Object Export From Tinkercad Server 2015

mtllib obj.mtl

o obj_0
v 52 		80 		4.02
v 52 		83.5855 		4.02
v 52 		80 		4.01
v 52 		83.5855 		4.01
v 51 		83.5855 		4.02
v 51 		80 		4.02
v 51 		83.5855 		4.01
v 51 		80 		4.01
# 8 vertices

g group_0_16448250

usemtl color_16448250
s 0

f 1 	3 	2
f 3 	4 	2
f 5 	7 	6
f 7 	8 	6
f 5 	6 	2
f 6 	1 	2
f 8 	7 	3
f 7 	4 	3
f 6 	8 	1
f 8 	3 	1
f 2 	4 	5
f 4 	7 	5
# 12 faces

 #end of obj_0

o obj_1
v 52 		74 		4.02
v 52 		77.5855 		4.02
v 52 		74 		4.01
v 52 		77.5855 		4.01
v 51 		77.5855 		4.02
v 51 		74 		4.02
v 51 		77.5855 		4.01
v 51 		74 		4.01
# 8 vertices

g group_1_16448250

usemtl color_16448250
s 0

f 9 	11 	10
f 11 	12 	10
f 13 	15 	14
f 15 	16 	14
f 13 	14 	10
f 14 	9 	10
f 16 	15 	11
f 15 	12 	11
f 14 	16 	9
f 16 	11 	9
f 10 	12 	13
f 12 	15 	13
# 12 faces

 #end of obj_1

o obj_2
v 52 		68 		4.02
v 52 		71.5855 		4.02
v 52 		68 		4.01
v 52 		71.5855 		4.01
v 51 		71.5855 		4.02
v 51 		68 		4.02
v 51 		71.5855 		4.01
v 51 		68 		4.01
# 8 vertices

g group_2_16448250

usemtl color_16448250
s 0

f 17 	19 	18
f 19 	20 	18
f 21 	23 	22
f 23 	24 	22
f 21 	22 	18
f 22 	17 	18
f 24 	23 	19
f 23 	20 	19
f 22 	24 	17
f 24 	19 	17
f 18 	20 	21
f 20 	23 	21
# 12 faces

 #end of obj_2

o obj_3
v 52 		62 		4.02
v 52 		65.5855 		4.02
v 52 		62 		4.01
v 52 		65.5855 		4.01
v 51 		65.5855 		4.02
v 51 		62 		4.02
v 51 		65.5855 		4.01
v 51 		62 		4.01
# 8 vertices

g group_3_16448250

usemtl color_16448250
s 0

f 25 	27 	26
f 27 	28 	26
f 29 	31 	30
f 31 	32 	30
f 29 	30 	26
f 30 	25 	26
f 32 	31 	27
f 31 	28 	27
f 30 	32 	25
f 32 	27 	25
f 26 	28 	29
f 28 	31 	29
# 12 faces

 #end of obj_3

o obj_4
v 52 		50.4145 		4.02
v 52 		54 		4.02
v 52 		50.4145 		4.01
v 52 		54 		4.01
v 51 		54 		4.02
v 51 		50.4145 		4.02
v 51 		54 		4.01
v 51 		50.4145 		4.01
# 8 vertices

g group_4_16448250

usemtl color_16448250
s 0

f 33 	35 	34
f 35 	36 	34
f 37 	39 	38
f 39 	40 	38
f 37 	38 	34
f 38 	33 	34
f 40 	39 	35
f 39 	36 	35
f 38 	40 	33
f 40 	35 	33
f 34 	36 	37
f 36 	39 	37
# 12 faces

 #end of obj_4

o obj_5
v 52 		56.4145 		4.02
v 52 		60 		4.02
v 52 		56.4145 		4.01
v 52 		60 		4.01
v 51 		60 		4.02
v 51 		56.4145 		4.02
v 51 		60 		4.01
v 51 		56.4145 		4.01
# 8 vertices

g group_5_16448250

usemtl color_16448250
s 0

f 41 	43 	42
f 43 	44 	42
f 45 	47 	46
f 47 	48 	46
f 45 	46 	42
f 46 	41 	42
f 48 	47 	43
f 47 	44 	43
f 46 	48 	41
f 48 	43 	41
f 42 	44 	45
f 44 	47 	45
# 12 faces

 #end of obj_5

o obj_6
v 52 		44.4145 		4.02
v 52 		48 		4.02
v 52 		44.4145 		4.01
v 52 		48 		4.01
v 51 		48 		4.02
v 51 		44.4145 		4.02
v 51 		48 		4.01
v 51 		44.4145 		4.01
# 8 vertices

g group_6_16448250

usemtl color_16448250
s 0

f 49 	51 	50
f 51 	52 	50
f 53 	55 	54
f 55 	56 	54
f 53 	54 	50
f 54 	49 	50
f 56 	55 	51
f 55 	52 	51
f 54 	56 	49
f 56 	51 	49
f 50 	52 	53
f 52 	55 	53
# 12 faces

 #end of obj_6

o obj_7
v 52 		38.4145 		4.02
v 52 		42 		4.02
v 52 		38.4145 		4.01
v 52 		42 		4.01
v 51 		42 		4.02
v 51 		38.4145 		4.02
v 51 		42 		4.01
v 51 		38.4145 		4.01
# 8 vertices

g group_7_16448250

usemtl color_16448250
s 0

f 57 	59 	58
f 59 	60 	58
f 61 	63 	62
f 63 	64 	62
f 61 	62 	58
f 62 	57 	58
f 64 	63 	59
f 63 	60 	59
f 62 	64 	57
f 64 	59 	57
f 58 	60 	61
f 60 	63 	61
# 12 faces

 #end of obj_7

o obj_8
v 52 		14.8291 		4.02
v 52 		18.4145 		4.02
v 52 		14.8291 		4.01
v 52 		18.4145 		4.01
v 51 		18.4145 		4.02
v 51 		14.8291 		4.02
v 51 		18.4145 		4.01
v 51 		14.8291 		4.01
# 8 vertices

g group_8_16448250

usemtl color_16448250
s 0

f 65 	67 	66
f 67 	68 	66
f 69 	71 	70
f 71 	72 	70
f 69 	70 	66
f 70 	65 	66
f 72 	71 	67
f 71 	68 	67
f 70 	72 	65
f 72 	67 	65
f 66 	68 	69
f 68 	71 	69
# 12 faces

 #end of obj_8

o obj_9
v 52 		8.8291 		4.02
v 52 		12.4145 		4.02
v 52 		8.8291 		4.01
v 52 		12.4145 		4.01
v 51 		12.4145 		4.02
v 51 		8.8291 		4.02
v 51 		12.4145 		4.01
v 51 		8.8291 		4.01
# 8 vertices

g group_9_16448250

usemtl color_16448250
s 0

f 73 	75 	74
f 75 	76 	74
f 77 	79 	78
f 79 	80 	78
f 77 	78 	74
f 78 	73 	74
f 80 	79 	75
f 79 	76 	75
f 78 	80 	73
f 80 	75 	73
f 74 	76 	77
f 76 	79 	77
# 12 faces

 #end of obj_9

o obj_10
v 52 		2.8291 		4.02
v 52 		6.4145 		4.02
v 52 		2.8291 		4.01
v 52 		6.4145 		4.01
v 51 		6.4145 		4.02
v 51 		2.8291 		4.02
v 51 		6.4145 		4.01
v 51 		2.8291 		4.01
# 8 vertices

g group_10_16448250

usemtl color_16448250
s 0

f 81 	83 	82
f 83 	84 	82
f 85 	87 	86
f 87 	88 	86
f 85 	86 	82
f 86 	81 	82
f 88 	87 	83
f 87 	84 	83
f 86 	88 	81
f 88 	83 	81
f 82 	84 	85
f 84 	87 	85
# 12 faces

 #end of obj_10

o obj_11
v 52 		-3.1709 		4.02
v 52 		0.4145 		4.02
v 52 		-3.1709 		4.01
v 52 		0.4145 		4.01
v 51 		0.4145 		4.02
v 51 		-3.1709 		4.02
v 51 		0.4145 		4.01
v 51 		-3.1709 		4.01
# 8 vertices

g group_11_16448250

usemtl color_16448250
s 0

f 89 	91 	90
f 91 	92 	90
f 93 	95 	94
f 95 	96 	94
f 93 	94 	90
f 94 	89 	90
f 96 	95 	91
f 95 	92 	91
f 94 	96 	89
f 96 	91 	89
f 90 	92 	93
f 92 	95 	93
# 12 faces

 #end of obj_11

o obj_12
v 52 		20.4145 		4.02
v 52 		24 		4.02
v 52 		20.4145 		4.01
v 52 		24 		4.01
v 51 		24 		4.02
v 51 		20.4145 		4.02
v 51 		24 		4.01
v 51 		20.4145 		4.01
# 8 vertices

g group_12_16448250

usemtl color_16448250
s 0

f 97 	99 	98
f 99 	100 	98
f 101 	103 	102
f 103 	104 	102
f 101 	102 	98
f 102 	97 	98
f 104 	103 	99
f 103 	100 	99
f 102 	104 	97
f 104 	99 	97
f 98 	100 	101
f 100 	103 	101
# 12 faces

 #end of obj_12

o obj_13
v 52 		26.4145 		4.02
v 52 		30 		4.02
v 52 		26.4145 		4.01
v 52 		30 		4.01
v 51 		30 		4.02
v 51 		26.4145 		4.02
v 51 		30 		4.01
v 51 		26.4145 		4.01
# 8 vertices

g group_13_16448250

usemtl color_16448250
s 0

f 105 	107 	106
f 107 	108 	106
f 109 	111 	110
f 111 	112 	110
f 109 	110 	106
f 110 	105 	106
f 112 	111 	107
f 111 	108 	107
f 110 	112 	105
f 112 	107 	105
f 106 	108 	109
f 108 	111 	109
# 12 faces

 #end of obj_13

o obj_14
v 52 		32.4145 		4.02
v 52 		36 		4.02
v 52 		32.4145 		4.01
v 52 		36 		4.01
v 51 		36 		4.02
v 51 		32.4145 		4.02
v 51 		36 		4.01
v 51 		32.4145 		4.01
# 8 vertices

g group_14_16448250

usemtl color_16448250
s 0

f 113 	115 	114
f 115 	116 	114
f 117 	119 	118
f 119 	120 	118
f 117 	118 	114
f 118 	113 	114
f 120 	119 	115
f 119 	116 	115
f 118 	120 	113
f 120 	115 	113
f 114 	116 	117
f 116 	119 	117
# 12 faces

 #end of obj_14

o obj_15
v 52 		-9.5855 		4.02
v 52 		-6 		4.02
v 52 		-9.5855 		4.01
v 52 		-6 		4.01
v 51 		-6 		4.02
v 51 		-9.5855 		4.02
v 51 		-6 		4.01
v 51 		-9.5855 		4.01
# 8 vertices

g group_15_16448250

usemtl color_16448250
s 0

f 121 	123 	122
f 123 	124 	122
f 125 	127 	126
f 127 	128 	126
f 125 	126 	122
f 126 	121 	122
f 128 	127 	123
f 127 	124 	123
f 126 	128 	121
f 128 	123 	121
f 122 	124 	125
f 124 	127 	125
# 12 faces

 #end of obj_15

o obj_16
v 52 		-15.5855 		4.02
v 52 		-12 		4.02
v 52 		-15.5855 		4.01
v 52 		-12 		4.01
v 51 		-12 		4.02
v 51 		-15.5855 		4.02
v 51 		-12 		4.01
v 51 		-15.5855 		4.01
# 8 vertices

g group_16_16448250

usemtl color_16448250
s 0

f 129 	131 	130
f 131 	132 	130
f 133 	135 	134
f 135 	136 	134
f 133 	134 	130
f 134 	129 	130
f 136 	135 	131
f 135 	132 	131
f 134 	136 	129
f 136 	131 	129
f 130 	132 	133
f 132 	135 	133
# 12 faces

 #end of obj_16

o obj_17
v 52 		-21.5855 		4.02
v 52 		-18 		4.02
v 52 		-21.5855 		4.01
v 52 		-18 		4.01
v 51 		-18 		4.02
v 51 		-21.5855 		4.02
v 51 		-18 		4.01
v 51 		-21.5855 		4.01
# 8 vertices

g group_17_16448250

usemtl color_16448250
s 0

f 137 	139 	138
f 139 	140 	138
f 141 	143 	142
f 143 	144 	142
f 141 	142 	138
f 142 	137 	138
f 144 	143 	139
f 143 	140 	139
f 142 	144 	137
f 144 	139 	137
f 138 	140 	141
f 140 	143 	141
# 12 faces

 #end of obj_17

o obj_18
v 52 		-27.5855 		4.02
v 52 		-24 		4.02
v 52 		-27.5855 		4.01
v 52 		-24 		4.01
v 51 		-24 		4.02
v 51 		-27.5855 		4.02
v 51 		-24 		4.01
v 51 		-27.5855 		4.01
# 8 vertices

g group_18_16448250

usemtl color_16448250
s 0

f 145 	147 	146
f 147 	148 	146
f 149 	151 	150
f 151 	152 	150
f 149 	150 	146
f 150 	145 	146
f 152 	151 	147
f 151 	148 	147
f 150 	152 	145
f 152 	147 	145
f 146 	148 	149
f 148 	151 	149
# 12 faces

 #end of obj_18

o obj_19
v 52 		-39.1709 		4.02
v 52 		-35.5855 		4.02
v 52 		-39.1709 		4.01
v 52 		-35.5855 		4.01
v 51 		-35.5855 		4.02
v 51 		-39.1709 		4.02
v 51 		-35.5855 		4.01
v 51 		-39.1709 		4.01
# 8 vertices

g group_19_16448250

usemtl color_16448250
s 0

f 153 	155 	154
f 155 	156 	154
f 157 	159 	158
f 159 	160 	158
f 157 	158 	154
f 158 	153 	154
f 160 	159 	155
f 159 	156 	155
f 158 	160 	153
f 160 	155 	153
f 154 	156 	157
f 156 	159 	157
# 12 faces

 #end of obj_19

o obj_20
v 52 		-33.1709 		4.02
v 52 		-29.5855 		4.02
v 52 		-33.1709 		4.01
v 52 		-29.5855 		4.01
v 51 		-29.5855 		4.02
v 51 		-33.1709 		4.02
v 51 		-29.5855 		4.01
v 51 		-33.1709 		4.01
# 8 vertices

g group_20_16448250

usemtl color_16448250
s 0

f 161 	163 	162
f 163 	164 	162
f 165 	167 	166
f 167 	168 	166
f 165 	166 	162
f 166 	161 	162
f 168 	167 	163
f 167 	164 	163
f 166 	168 	161
f 168 	163 	161
f 162 	164 	165
f 164 	167 	165
# 12 faces

 #end of obj_20

o obj_21
v 52 		-45.1709 		4.02
v 52 		-41.5855 		4.02
v 52 		-45.1709 		4.01
v 52 		-41.5855 		4.01
v 51 		-41.5855 		4.02
v 51 		-45.1709 		4.02
v 51 		-41.5855 		4.01
v 51 		-45.1709 		4.01
# 8 vertices

g group_21_16448250

usemtl color_16448250
s 0

f 169 	171 	170
f 171 	172 	170
f 173 	175 	174
f 175 	176 	174
f 173 	174 	170
f 174 	169 	170
f 176 	175 	171
f 175 	172 	171
f 174 	176 	169
f 176 	171 	169
f 170 	172 	173
f 172 	175 	173
# 12 faces

 #end of obj_21

o obj_22
v 52 		-51.1709 		4.02
v 52 		-47.5855 		4.02
v 52 		-51.1709 		4.01
v 52 		-47.5855 		4.01
v 51 		-47.5855 		4.02
v 51 		-51.1709 		4.02
v 51 		-47.5855 		4.01
v 51 		-51.1709 		4.01
# 8 vertices

g group_22_16448250

usemtl color_16448250
s 0

f 177 	179 	178
f 179 	180 	178
f 181 	183 	182
f 183 	184 	182
f 181 	182 	178
f 182 	177 	178
f 184 	183 	179
f 183 	180 	179
f 182 	184 	177
f 184 	179 	177
f 178 	180 	181
f 180 	183 	181
# 12 faces

 #end of obj_22

o obj_23
v 52 		-74.7564 		4.02
v 52 		-71.1709 		4.02
v 52 		-74.7564 		4.01
v 52 		-71.1709 		4.01
v 51 		-71.1709 		4.02
v 51 		-74.7564 		4.02
v 51 		-71.1709 		4.01
v 51 		-74.7564 		4.01
# 8 vertices

g group_23_16448250

usemtl color_16448250
s 0

f 185 	187 	186
f 187 	188 	186
f 189 	191 	190
f 191 	192 	190
f 189 	190 	186
f 190 	185 	186
f 192 	191 	187
f 191 	188 	187
f 190 	192 	185
f 192 	187 	185
f 186 	188 	189
f 188 	191 	189
# 12 faces

 #end of obj_23

o obj_24
v 52 		-80.7564 		4.02
v 52 		-77.1709 		4.02
v 52 		-80.7564 		4.01
v 52 		-77.1709 		4.01
v 51 		-77.1709 		4.02
v 51 		-80.7564 		4.02
v 51 		-77.1709 		4.01
v 51 		-80.7564 		4.01
# 8 vertices

g group_24_16448250

usemtl color_16448250
s 0

f 193 	195 	194
f 195 	196 	194
f 197 	199 	198
f 199 	200 	198
f 197 	198 	194
f 198 	193 	194
f 200 	199 	195
f 199 	196 	195
f 198 	200 	193
f 200 	195 	193
f 194 	196 	197
f 196 	199 	197
# 12 faces

 #end of obj_24

o obj_25
v 52 		-86.7564 		4.02
v 52 		-83.1709 		4.02
v 52 		-86.7564 		4.01
v 52 		-83.1709 		4.01
v 51 		-83.1709 		4.02
v 51 		-86.7564 		4.02
v 51 		-83.1709 		4.01
v 51 		-86.7564 		4.01
# 8 vertices

g group_25_16448250

usemtl color_16448250
s 0

f 201 	203 	202
f 203 	204 	202
f 205 	207 	206
f 207 	208 	206
f 205 	206 	202
f 206 	201 	202
f 208 	207 	203
f 207 	204 	203
f 206 	208 	201
f 208 	203 	201
f 202 	204 	205
f 204 	207 	205
# 12 faces

 #end of obj_25

o obj_26
v 52 		-92.7564 		4.02
v 52 		-89.1709 		4.02
v 52 		-92.7564 		4.01
v 52 		-89.1709 		4.01
v 51 		-89.1709 		4.02
v 51 		-92.7564 		4.02
v 51 		-89.1709 		4.01
v 51 		-92.7564 		4.01
# 8 vertices

g group_26_16448250

usemtl color_16448250
s 0

f 209 	211 	210
f 211 	212 	210
f 213 	215 	214
f 215 	216 	214
f 213 	214 	210
f 214 	209 	210
f 216 	215 	211
f 215 	212 	211
f 214 	216 	209
f 216 	211 	209
f 210 	212 	213
f 212 	215 	213
# 12 faces

 #end of obj_26

o obj_27
v 52 		-69.1709 		4.02
v 52 		-65.5855 		4.02
v 52 		-69.1709 		4.01
v 52 		-65.5855 		4.01
v 51 		-65.5855 		4.02
v 51 		-69.1709 		4.02
v 51 		-65.5855 		4.01
v 51 		-69.1709 		4.01
# 8 vertices

g group_27_16448250

usemtl color_16448250
s 0

f 217 	219 	218
f 219 	220 	218
f 221 	223 	222
f 223 	224 	222
f 221 	222 	218
f 222 	217 	218
f 224 	223 	219
f 223 	220 	219
f 222 	224 	217
f 224 	219 	217
f 218 	220 	221
f 220 	223 	221
# 12 faces

 #end of obj_27

o obj_28
v 52 		-63.1709 		4.02
v 52 		-59.5855 		4.02
v 52 		-63.1709 		4.01
v 52 		-59.5855 		4.01
v 51 		-59.5855 		4.02
v 51 		-63.1709 		4.02
v 51 		-59.5855 		4.01
v 51 		-63.1709 		4.01
# 8 vertices

g group_28_16448250

usemtl color_16448250
s 0

f 225 	227 	226
f 227 	228 	226
f 229 	231 	230
f 231 	232 	230
f 229 	230 	226
f 230 	225 	226
f 232 	231 	227
f 231 	228 	227
f 230 	232 	225
f 232 	227 	225
f 226 	228 	229
f 228 	231 	229
# 12 faces

 #end of obj_28

o obj_29
v 52 		-57.1709 		4.02
v 52 		-53.5855 		4.02
v 52 		-57.1709 		4.01
v 52 		-53.5855 		4.01
v 51 		-53.5855 		4.02
v 51 		-57.1709 		4.02
v 51 		-53.5855 		4.01
v 51 		-57.1709 		4.01
# 8 vertices

g group_29_16448250

usemtl color_16448250
s 0

f 233 	235 	234
f 235 	236 	234
f 237 	239 	238
f 239 	240 	238
f 237 	238 	234
f 238 	233 	234
f 240 	239 	235
f 239 	236 	235
f 238 	240 	233
f 240 	235 	233
f 234 	236 	237
f 236 	239 	237
# 12 faces

 #end of obj_29

o obj_30
v 52 		-99 		4.02
v 52 		-95.4145 		4.02
v 52 		-99 		4.01
v 52 		-95.4145 		4.01
v 51 		-95.4145 		4.02
v 51 		-99 		4.02
v 51 		-95.4145 		4.01
v 51 		-99 		4.01
# 8 vertices

g group_30_16448250

usemtl color_16448250
s 0

f 241 	243 	242
f 243 	244 	242
f 245 	247 	246
f 247 	248 	246
f 245 	246 	242
f 246 	241 	242
f 248 	247 	243
f 247 	244 	243
f 246 	248 	241
f 248 	243 	241
f 242 	244 	245
f 244 	247 	245
# 12 faces

 #end of obj_30

o obj_31
v 57 		-99 		4.01
v 57 		89 		4.01
v 57 		-99 		4
v 57 		89 		4
v 36 		89 		4.01
v 36 		-99 		4.01
v 36 		89 		4
v 36 		-99 		4
# 8 vertices

g group_31_2829873

usemtl color_2829873
s 0

f 249 	251 	250
f 251 	252 	250
f 253 	255 	254
f 255 	256 	254
f 253 	254 	250
f 254 	249 	250
f 256 	255 	251
f 255 	252 	251
f 254 	256 	249
f 256 	251 	249
f 250 	252 	253
f 252 	255 	253
# 12 faces

 #end of obj_31

o obj_32
v 29.0345 		36.6092 		4.01
v 38.9655 		36.6092 		4.01
v 38.9655 		52.9763 		4.01
v 29.0345 		52.9763 		4.01
v 28.4425 		36.6092 		4.01
v 28.4539 		36.3667 		4.01
v 28.4875 		36.1336 		4.01
v 28.5423 		35.9188 		4.01
v 28.6159 		35.7305 		4.01
v 28.7056 		35.5759 		4.01
v 28.8079 		35.4611 		4.01
v 28.919 		35.3904 		4.01
v 29.0345 		35.3665 		4.01
v 38.9655 		35.3665 		4.01
v 39.081 		35.3904 		4.01
v 39.1921 		35.4611 		4.01
v 39.2944 		35.5759 		4.01
v 39.3841 		35.7305 		4.01
v 39.4577 		35.9188 		4.01
v 39.5125 		36.1336 		4.01
v 39.5461 		36.3667 		4.01
v 39.5575 		36.6092 		4.01
v 39.5575 		52.9763 		4.01
v 39.5461 		53.2187 		4.01
v 39.5125 		53.4519 		4.01
v 39.4577 		53.6667 		4.01
v 39.3841 		53.855 		4.01
v 39.2944 		54.0095 		4.01
v 39.1921 		54.1244 		4.01
v 39.081 		54.1951 		4.01
v 38.9655 		54.219 		4.01
v 29.0345 		54.219 		4.01
v 28.919 		54.1951 		4.01
v 28.8079 		54.1244 		4.01
v 28.7056 		54.0095 		4.01
v 28.6159 		53.855 		4.01
v 28.5423 		53.6667 		4.01
v 28.4875 		53.4519 		4.01
v 28.4539 		53.2187 		4.01
v 28.4425 		52.9763 		4.01
v 27.8732 		36.6092 		4.0099
v 27.8955 		36.1336 		4.0099
v 27.9616 		35.6764 		4.0099
v 28.0689 		35.2549 		4.0099
v 28.2134 		34.8856 		4.0099
v 28.3893 		34.5824 		4.0099
v 28.5901 		34.3572 		4.0099
v 28.8079 		34.2184 		4.0099
v 29.0345 		34.1716 		4.0099
v 38.9655 		34.1716 		4.0099
v 39.1921 		34.2184 		4.0099
v 39.4099 		34.3572 		4.0099
v 39.6107 		34.5824 		4.0099
v 39.7866 		34.8856 		4.0099
v 39.9311 		35.2549 		4.0099
v 40.0384 		35.6764 		4.0099
v 40.1045 		36.1336 		4.0099
v 40.1268 		36.6092 		4.0099
v 40.1268 		52.9763 		4.0099
v 40.1045 		53.4519 		4.0099
v 40.0384 		53.9091 		4.0099
v 39.9311 		54.3305 		4.0099
v 39.7866 		54.6999 		4.0099
v 39.6107 		55.0031 		4.0099
v 39.4099 		55.2283 		4.0099
v 39.1921 		55.367 		4.0099
v 38.9655 		55.4139 		4.0099
v 29.0345 		55.4139 		4.0099
v 28.8079 		55.367 		4.0099
v 28.5901 		55.2283 		4.0099
v 28.3893 		55.0031 		4.0099
v 28.2134 		54.6999 		4.0099
v 28.0689 		54.3305 		4.0099
v 27.9616 		53.9091 		4.0099
v 27.8955 		53.4519 		4.0099
v 27.8732 		52.9763 		4.0099
v 27.3486 		36.6092 		4.0097
v 27.381 		35.9188 		4.0097
v 27.4769 		35.2549 		4.0097
v 27.6327 		34.6431 		4.0097
v 27.8424 		34.1069 		4.0097
v 28.0979 		33.6668 		4.0097
v 28.3893 		33.3398 		4.0097
v 28.7056 		33.1384 		4.0097
v 29.0345 		33.0704 		4.0097
v 38.9655 		33.0704 		4.0097
v 39.2944 		33.1384 		4.0097
v 39.6107 		33.3398 		4.0097
v 39.9021 		33.6668 		4.0097
v 40.1576 		34.1069 		4.0097
v 40.3673 		34.6431 		4.0097
v 40.5231 		35.2549 		4.0097
v 40.619 		35.9188 		4.0097
v 40.6514 		36.6092 		4.0097
v 40.6514 		52.9763 		4.0097
v 40.619 		53.6667 		4.0097
v 40.5231 		54.3305 		4.0097
v 40.3673 		54.9424 		4.0097
v 40.1576 		55.4786 		4.0097
v 39.9021 		55.9187 		4.0097
v 39.6107 		56.2457 		4.0097
v 39.2944 		56.4471 		4.0097
v 38.9655 		56.5151 		4.0097
v 29.0345 		56.5151 		4.0097
v 28.7056 		56.4471 		4.0097
v 28.3893 		56.2457 		4.0097
v 28.0979 		55.9187 		4.0097
v 27.8424 		55.4786 		4.0097
v 27.6327 		54.9424 		4.0097
v 27.4769 		54.3305 		4.0097
v 27.381 		53.6667 		4.0097
v 27.3486 		52.9763 		4.0097
v 26.8888 		36.6092 		4.0094
v 26.93 		35.7305 		4.0094
v 27.0521 		34.8856 		4.0094
v 27.2504 		34.1069 		4.0094
v 27.5172 		33.4243 		4.0094
v 27.8424 		32.8642 		4.0094
v 28.2134 		32.448 		4.0094
v 28.6159 		32.1917 		4.0094
v 29.0345 		32.1051 		4.0094
v 38.9655 		32.1051 		4.0094
v 39.3841 		32.1917 		4.0094
v 39.7866 		32.448 		4.0094
v 40.1576 		32.8642 		4.0094
v 40.4828 		33.4243 		4.0094
v 40.7496 		34.1069 		4.0094
v 40.9479 		34.8856 		4.0094
v 41.07 		35.7305 		4.0094
v 41.1112 		36.6092 		4.0094
v 41.1112 		52.9763 		4.0094
v 41.07 		53.855 		4.0094
v 40.9479 		54.6999 		4.0094
v 40.7496 		55.4786 		4.0094
v 40.4828 		56.1611 		4.0094
v 40.1576 		56.7213 		4.0094
v 39.7866 		57.1375 		4.0094
v 39.3841 		57.3938 		4.0094
v 38.9655 		57.4803 		4.0094
v 29.0345 		57.4803 		4.0094
v 28.6159 		57.3938 		4.0094
v 28.2134 		57.1375 		4.0094
v 27.8424 		56.7213 		4.0094
v 27.5172 		56.1611 		4.0094
v 27.2504 		55.4786 		4.0094
v 27.0521 		54.6999 		4.0094
v 26.93 		53.855 		4.0094
v 26.8888 		52.9763 		4.0094
v 26.5114 		36.6092 		4.0092
v 26.5599 		35.5759 		4.0092
v 26.7035 		34.5824 		4.0092
v 26.9366 		33.6668 		4.0092
v 27.2504 		32.8642 		4.0092
v 27.6327 		32.2056 		4.0092
v 28.0689 		31.7161 		4.0092
v 28.5423 		31.4148 		4.0092
v 29.0345 		31.313 		4.0092
v 38.9655 		31.313 		4.0092
v 39.4577 		31.4148 		4.0092
v 39.9311 		31.7161 		4.0092
v 40.3673 		32.2056 		4.0092
v 40.7496 		32.8642 		4.0092
v 41.0634 		33.6668 		4.0092
v 41.2965 		34.5824 		4.0092
v 41.4401 		35.5759 		4.0092
v 41.4886 		36.6092 		4.0092
v 41.4886 		52.9763 		4.0092
v 41.4401 		54.0095 		4.0092
v 41.2965 		55.0031 		4.0092
v 41.0634 		55.9187 		4.0092
v 40.7496 		56.7213 		4.0092
v 40.3673 		57.3799 		4.0092
v 39.9311 		57.8693 		4.0092
v 39.4577 		58.1707 		4.0092
v 38.9655 		58.2725 		4.0092
v 29.0345 		58.2725 		4.0092
v 28.5423 		58.1707 		4.0092
v 28.0689 		57.8693 		4.0092
v 27.6327 		57.3799 		4.0092
v 27.2504 		56.7213 		4.0092
v 26.9366 		55.9187 		4.0092
v 26.7035 		55.0031 		4.0092
v 26.5599 		54.0095 		4.0092
v 26.5114 		52.9763 		4.0092
v 26.231 		36.6092 		4.0088
v 26.2849 		35.4611 		4.0088
v 26.4444 		34.3572 		4.0088
v 26.7035 		33.3398 		4.0088
v 27.0521 		32.448 		4.0088
v 27.4769 		31.7161 		4.0088
v 27.9616 		31.1723 		4.0088
v 28.4875 		30.8374 		4.0088
v 29.0345 		30.7244 		4.0088
v 38.9655 		30.7244 		4.0088
v 39.5125 		30.8374 		4.0088
v 40.0384 		31.1723 		4.0088
v 40.5231 		31.7161 		4.0088
v 40.9479 		32.448 		4.0088
v 41.2965 		33.3398 		4.0088
v 41.5556 		34.3572 		4.0088
v 41.7151 		35.4611 		4.0088
v 41.769 		36.6092 		4.0088
v 41.769 		52.9763 		4.0088
v 41.7151 		54.1244 		4.0088
v 41.5556 		55.2283 		4.0088
v 41.2965 		56.2457 		4.0088
v 40.9479 		57.1375 		4.0088
v 40.5231 		57.8693 		4.0088
v 40.0384 		58.4131 		4.0088
v 39.5125 		58.748 		4.0088
v 38.9655 		58.8611 		4.0088
v 29.0345 		58.8611 		4.0088
v 28.4875 		58.748 		4.0088
v 27.9616 		58.4131 		4.0088
v 27.4769 		57.8693 		4.0088
v 27.0521 		57.1375 		4.0088
v 26.7035 		56.2457 		4.0088
v 26.4444 		55.2283 		4.0088
v 26.2849 		54.1244 		4.0088
v 26.231 		52.9763 		4.0088
v 26.0583 		36.6092 		4.0085
v 26.1155 		35.3904 		4.0085
v 26.2849 		34.2184 		4.0085
v 26.5599 		33.1384 		4.0085
v 26.93 		32.1917 		4.0085
v 27.381 		31.4148 		4.0085
v 27.8955 		30.8374 		4.0085
v 28.4539 		30.4819 		4.0085
v 29.0345 		30.3619 		4.0085
v 38.9655 		30.3619 		4.0085
v 39.5461 		30.4819 		4.0085
v 40.1045 		30.8374 		4.0085
v 40.619 		31.4148 		4.0085
v 41.07 		32.1917 		4.0085
v 41.4401 		33.1384 		4.0085
v 41.7151 		34.2184 		4.0085
v 41.8845 		35.3904 		4.0085
v 41.9417 		36.6092 		4.0085
v 41.9417 		52.9763 		4.0085
v 41.8845 		54.1951 		4.0085
v 41.7151 		55.367 		4.0085
v 41.4401 		56.4471 		4.0085
v 41.07 		57.3938 		4.0085
v 40.619 		58.1707 		4.0085
v 40.1045 		58.748 		4.0085
v 39.5461 		59.1035 		4.0085
v 38.9655 		59.2236 		4.0085
v 29.0345 		59.2236 		4.0085
v 28.4539 		59.1035 		4.0085
v 27.8955 		58.748 		4.0085
v 27.381 		58.1707 		4.0085
v 26.93 		57.3938 		4.0085
v 26.5599 		56.4471 		4.0085
v 26.2849 		55.367 		4.0085
v 26.1155 		54.1951 		4.0085
v 26.0583 		52.9763 		4.0085
v 26 		36.6092 		4.0081
v 26.0583 		35.3665 		4.0081
v 26.231 		34.1716 		4.0081
v 26.5114 		33.0704 		4.0081
v 26.8888 		32.1051 		4.0081
v 27.3486 		31.313 		4.0081
v 27.8732 		30.7244 		4.0081
v 28.4425 		30.3619 		4.0081
v 29.0345 		30.2395 		4.0081
v 38.9655 		30.2395 		4.0081
v 39.5575 		30.3619 		4.0081
v 40.1268 		30.7244 		4.0081
v 40.6514 		31.313 		4.0081
v 41.1112 		32.1051 		4.0081
v 41.4886 		33.0704 		4.0081
v 41.769 		34.1716 		4.0081
v 41.9417 		35.3665 		4.0081
v 42 		36.6092 		4.0081
v 42 		52.9763 		4.0081
v 41.9417 		54.219 		4.0081
v 41.769 		55.4139 		4.0081
v 41.4886 		56.5151 		4.0081
v 41.1112 		57.4803 		4.0081
v 40.6514 		58.2725 		4.0081
v 40.1268 		58.8611 		4.0081
v 39.5575 		59.2236 		4.0081
v 38.9655 		59.346 		4.0081
v 29.0345 		59.346 		4.0081
v 28.4425 		59.2236 		4.0081
v 27.8732 		58.8611 		4.0081
v 27.3486 		58.2725 		4.0081
v 26.8888 		57.4803 		4.0081
v 26.5114 		56.5151 		4.0081
v 26.231 		55.4139 		4.0081
v 26.0583 		54.219 		4.0081
v 26 		52.9763 		4.0081
v 26 		36.6092 		4.0019
v 26.0583 		35.3665 		4.0019
v 26.231 		34.1716 		4.0019
v 26.5114 		33.0704 		4.0019
v 26.8888 		32.1051 		4.0019
v 27.3486 		31.313 		4.0019
v 27.8732 		30.7244 		4.0019
v 28.4425 		30.3619 		4.0019
v 29.0345 		30.2395 		4.0019
v 38.9655 		30.2395 		4.0019
v 39.5575 		30.3619 		4.0019
v 40.1268 		30.7244 		4.0019
v 40.6514 		31.313 		4.0019
v 41.1112 		32.1051 		4.0019
v 41.4886 		33.0704 		4.0019
v 41.769 		34.1716 		4.0019
v 41.9417 		35.3665 		4.0019
v 42 		36.6092 		4.0019
v 42 		52.9763 		4.0019
v 41.9417 		54.219 		4.0019
v 41.769 		55.4139 		4.0019
v 41.4886 		56.5151 		4.0019
v 41.1112 		57.4803 		4.0019
v 40.6514 		58.2725 		4.0019
v 40.1268 		58.8611 		4.0019
v 39.5575 		59.2236 		4.0019
v 38.9655 		59.346 		4.0019
v 29.0345 		59.346 		4.0019
v 28.4425 		59.2236 		4.0019
v 27.8732 		58.8611 		4.0019
v 27.3486 		58.2725 		4.0019
v 26.8888 		57.4803 		4.0019
v 26.5114 		56.5151 		4.0019
v 26.231 		55.4139 		4.0019
v 26.0583 		54.219 		4.0019
v 26 		52.9763 		4.0019
v 26.0583 		36.6092 		4.0015
v 26.1155 		35.3904 		4.0015
v 26.2849 		34.2184 		4.0015
v 26.5599 		33.1384 		4.0015
v 26.93 		32.1917 		4.0015
v 27.381 		31.4148 		4.0015
v 27.8955 		30.8374 		4.0015
v 28.4539 		30.4819 		4.0015
v 29.0345 		30.3619 		4.0015
v 38.9655 		30.3619 		4.0015
v 39.5461 		30.4819 		4.0015
v 40.1045 		30.8374 		4.0015
v 40.619 		31.4148 		4.0015
v 41.07 		32.1917 		4.0015
v 41.4401 		33.1384 		4.0015
v 41.7151 		34.2184 		4.0015
v 41.8845 		35.3904 		4.0015
v 41.9417 		36.6092 		4.0015
v 41.9417 		52.9763 		4.0015
v 41.8845 		54.1951 		4.0015
v 41.7151 		55.367 		4.0015
v 41.4401 		56.4471 		4.0015
v 41.07 		57.3938 		4.0015
v 40.619 		58.1707 		4.0015
v 40.1045 		58.748 		4.0015
v 39.5461 		59.1035 		4.0015
v 38.9655 		59.2236 		4.0015
v 29.0345 		59.2236 		4.0015
v 28.4539 		59.1035 		4.0015
v 27.8955 		58.748 		4.0015
v 27.381 		58.1707 		4.0015
v 26.93 		57.3938 		4.0015
v 26.5599 		56.4471 		4.0015
v 26.2849 		55.367 		4.0015
v 26.1155 		54.1951 		4.0015
v 26.0583 		52.9763 		4.0015
v 26.231 		36.6092 		4.0012
v 26.2849 		35.4611 		4.0012
v 26.4444 		34.3572 		4.0012
v 26.7035 		33.3398 		4.0012
v 27.0521 		32.448 		4.0012
v 27.4769 		31.7161 		4.0012
v 27.9616 		31.1723 		4.0012
v 28.4875 		30.8374 		4.0012
v 29.0345 		30.7244 		4.0012
v 38.9655 		30.7244 		4.0012
v 39.5125 		30.8374 		4.0012
v 40.0384 		31.1723 		4.0012
v 40.5231 		31.7161 		4.0012
v 40.9479 		32.448 		4.0012
v 41.2965 		33.3398 		4.0012
v 41.5556 		34.3572 		4.0012
v 41.7151 		35.4611 		4.0012
v 41.769 		36.6092 		4.0012
v 41.769 		52.9763 		4.0012
v 41.7151 		54.1244 		4.0012
v 41.5556 		55.2283 		4.0012
v 41.2965 		56.2457 		4.0012
v 40.9479 		57.1375 		4.0012
v 40.5231 		57.8693 		4.0012
v 40.0384 		58.4131 		4.0012
v 39.5125 		58.748 		4.0012
v 38.9655 		58.8611 		4.0012
v 29.0345 		58.8611 		4.0012
v 28.4875 		58.748 		4.0012
v 27.9616 		58.4131 		4.0012
v 27.4769 		57.8693 		4.0012
v 27.0521 		57.1375 		4.0012
v 26.7035 		56.2457 		4.0012
v 26.4444 		55.2283 		4.0012
v 26.2849 		54.1244 		4.0012
v 26.231 		52.9763 		4.0012
v 26.5114 		36.6092 		4.0008
v 26.5599 		35.5759 		4.0008
v 26.7035 		34.5824 		4.0008
v 26.9366 		33.6668 		4.0008
v 27.2504 		32.8642 		4.0008
v 27.6327 		32.2056 		4.0008
v 28.0689 		31.7161 		4.0008
v 28.5423 		31.4148 		4.0008
v 29.0345 		31.313 		4.0008
v 38.9655 		31.313 		4.0008
v 39.4577 		31.4148 		4.0008
v 39.9311 		31.7161 		4.0008
v 40.3673 		32.2056 		4.0008
v 40.7496 		32.8642 		4.0008
v 41.0634 		33.6668 		4.0008
v 41.2965 		34.5824 		4.0008
v 41.4401 		35.5759 		4.0008
v 41.4886 		36.6092 		4.0008
v 41.4886 		52.9763 		4.0008
v 41.4401 		54.0095 		4.0008
v 41.2965 		55.0031 		4.0008
v 41.0634 		55.9187 		4.0008
v 40.7496 		56.7213 		4.0008
v 40.3673 		57.3799 		4.0008
v 39.9311 		57.8693 		4.0008
v 39.4577 		58.1707 		4.0008
v 38.9655 		58.2725 		4.0008
v 29.0345 		58.2725 		4.0008
v 28.5423 		58.1707 		4.0008
v 28.0689 		57.8693 		4.0008
v 27.6327 		57.3799 		4.0008
v 27.2504 		56.7213 		4.0008
v 26.9366 		55.9187 		4.0008
v 26.7035 		55.0031 		4.0008
v 26.5599 		54.0095 		4.0008
v 26.5114 		52.9763 		4.0008
v 26.8888 		36.6092 		4.0006
v 26.93 		35.7305 		4.0006
v 27.0521 		34.8856 		4.0006
v 27.2504 		34.1069 		4.0006
v 27.5172 		33.4243 		4.0006
v 27.8424 		32.8642 		4.0006
v 28.2134 		32.448 		4.0006
v 28.6159 		32.1917 		4.0006
v 29.0345 		32.1051 		4.0006
v 38.9655 		32.1051 		4.0006
v 39.3841 		32.1917 		4.0006
v 39.7866 		32.448 		4.0006
v 40.1576 		32.8642 		4.0006
v 40.4828 		33.4243 		4.0006
v 40.7496 		34.1069 		4.0006
v 40.9479 		34.8856 		4.0006
v 41.07 		35.7305 		4.0006
v 41.1112 		36.6092 		4.0006
v 41.1112 		52.9763 		4.0006
v 41.07 		53.855 		4.0006
v 40.9479 		54.6999 		4.0006
v 40.7496 		55.4786 		4.0006
v 40.4828 		56.1611 		4.0006
v 40.1576 		56.7213 		4.0006
v 39.7866 		57.1375 		4.0006
v 39.3841 		57.3938 		4.0006
v 38.9655 		57.4803 		4.0006
v 29.0345 		57.4803 		4.0006
v 28.6159 		57.3938 		4.0006
v 28.2134 		57.1375 		4.0006
v 27.8424 		56.7213 		4.0006
v 27.5172 		56.1611 		4.0006
v 27.2504 		55.4786 		4.0006
v 27.0521 		54.6999 		4.0006
v 26.93 		53.855 		4.0006
v 26.8888 		52.9763 		4.0006
v 27.3486 		36.6092 		4.0003
v 27.381 		35.9188 		4.0003
v 27.4769 		35.2549 		4.0003
v 27.6327 		34.6431 		4.0003
v 27.8424 		34.1069 		4.0003
v 28.0979 		33.6668 		4.0003
v 28.3893 		33.3398 		4.0003
v 28.7056 		33.1384 		4.0003
v 29.0345 		33.0704 		4.0003
v 38.9655 		33.0704 		4.0003
v 39.2944 		33.1384 		4.0003
v 39.6107 		33.3398 		4.0003
v 39.9021 		33.6668 		4.0003
v 40.1576 		34.1069 		4.0003
v 40.3673 		34.6431 		4.0003
v 40.5231 		35.2549 		4.0003
v 40.619 		35.9188 		4.0003
v 40.6514 		36.6092 		4.0003
v 40.6514 		52.9763 		4.0003
v 40.619 		53.6667 		4.0003
v 40.5231 		54.3305 		4.0003
v 40.3673 		54.9424 		4.0003
v 40.1576 		55.4786 		4.0003
v 39.9021 		55.9187 		4.0003
v 39.6107 		56.2457 		4.0003
v 39.2944 		56.4471 		4.0003
v 38.9655 		56.5151 		4.0003
v 29.0345 		56.5151 		4.0003
v 28.7056 		56.4471 		4.0003
v 28.3893 		56.2457 		4.0003
v 28.0979 		55.9187 		4.0003
v 27.8424 		55.4786 		4.0003
v 27.6327 		54.9424 		4.0003
v 27.4769 		54.3305 		4.0003
v 27.381 		53.6667 		4.0003
v 27.3486 		52.9763 		4.0003
v 27.8732 		36.6092 		4.0001
v 27.8955 		36.1336 		4.0001
v 27.9616 		35.6764 		4.0001
v 28.0689 		35.2549 		4.0001
v 28.2134 		34.8856 		4.0001
v 28.3893 		34.5824 		4.0001
v 28.5901 		34.3572 		4.0001
v 28.8079 		34.2184 		4.0001
v 29.0345 		34.1716 		4.0001
v 38.9655 		34.1716 		4.0001
v 39.1921 		34.2184 		4.0001
v 39.4099 		34.3572 		4.0001
v 39.6107 		34.5824 		4.0001
v 39.7866 		34.8856 		4.0001
v 39.9311 		35.2549 		4.0001
v 40.0384 		35.6764 		4.0001
v 40.1045 		36.1336 		4.0001
v 40.1268 		36.6092 		4.0001
v 40.1268 		52.9763 		4.0001
v 40.1045 		53.4519 		4.0001
v 40.0384 		53.9091 		4.0001
v 39.9311 		54.3305 		4.0001
v 39.7866 		54.6999 		4.0001
v 39.6107 		55.0031 		4.0001
v 39.4099 		55.2283 		4.0001
v 39.1921 		55.367 		4.0001
v 38.9655 		55.4139 		4.0001
v 29.0345 		55.4139 		4.0001
v 28.8079 		55.367 		4.0001
v 28.5901 		55.2283 		4.0001
v 28.3893 		55.0031 		4.0001
v 28.2134 		54.6999 		4.0001
v 28.0689 		54.3305 		4.0001
v 27.9616 		53.9091 		4.0001
v 27.8955 		53.4519 		4.0001
v 27.8732 		52.9763 		4.0001
v 28.4425 		36.6092 		4
v 28.4539 		36.3667 		4
v 28.4875 		36.1336 		4
v 28.5423 		35.9188 		4
v 28.6159 		35.7305 		4
v 28.7056 		35.5759 		4
v 28.8079 		35.4611 		4
v 28.919 		35.3904 		4
v 29.0345 		35.3665 		4
v 38.9655 		35.3665 		4
v 39.081 		35.3904 		4
v 39.1921 		35.4611 		4
v 39.2944 		35.5759 		4
v 39.3841 		35.7305 		4
v 39.4577 		35.9188 		4
v 39.5125 		36.1336 		4
v 39.5461 		36.3667 		4
v 39.5575 		36.6092 		4
v 39.5575 		52.9763 		4
v 39.5461 		53.2187 		4
v 39.5125 		53.4519 		4
v 39.4577 		53.6667 		4
v 39.3841 		53.855 		4
v 39.2944 		54.0095 		4
v 39.1921 		54.1244 		4
v 39.081 		54.1951 		4
v 38.9655 		54.219 		4
v 29.0345 		54.219 		4
v 28.919 		54.1951 		4
v 28.8079 		54.1244 		4
v 28.7056 		54.0095 		4
v 28.6159 		53.855 		4
v 28.5423 		53.6667 		4
v 28.4875 		53.4519 		4
v 28.4539 		53.2187 		4
v 28.4425 		52.9763 		4
v 29.0345 		36.6092 		4
v 38.9655 		36.6092 		4
v 38.9655 		52.9763 		4
v 29.0345 		52.9763 		4
# 584 vertices

g group_32_2829873

usemtl color_2829873
s 0

f 257 	261 	262
f 257 	262 	263
f 257 	263 	264
f 257 	264 	265
f 257 	265 	266
f 257 	266 	267
f 257 	267 	268
f 257 	268 	269
f 258 	257 	270
f 257 	269 	270
f 258 	270 	271
f 258 	271 	272
f 258 	272 	273
f 258 	273 	274
f 258 	274 	275
f 258 	275 	276
f 258 	276 	277
f 258 	277 	278
f 259 	258 	279
f 258 	278 	279
f 259 	279 	280
f 259 	280 	281
f 259 	281 	282
f 259 	282 	283
f 259 	283 	284
f 259 	284 	285
f 259 	285 	286
f 259 	286 	287
f 260 	259 	288
f 259 	287 	288
f 260 	288 	289
f 260 	289 	290
f 260 	290 	291
f 260 	291 	292
f 260 	292 	293
f 260 	293 	294
f 260 	294 	295
f 260 	295 	296
f 257 	260 	261
f 260 	296 	261
f 262 	261 	298
f 261 	297 	298
f 263 	262 	299
f 262 	298 	299
f 264 	263 	300
f 263 	299 	300
f 265 	264 	301
f 264 	300 	301
f 266 	265 	302
f 265 	301 	302
f 267 	266 	303
f 266 	302 	303
f 268 	267 	304
f 267 	303 	304
f 269 	268 	305
f 268 	304 	305
f 270 	269 	306
f 269 	305 	306
f 271 	270 	307
f 270 	306 	307
f 272 	271 	308
f 271 	307 	308
f 273 	272 	309
f 272 	308 	309
f 274 	273 	310
f 273 	309 	310
f 275 	274 	311
f 274 	310 	311
f 276 	275 	312
f 275 	311 	312
f 277 	276 	313
f 276 	312 	313
f 278 	277 	314
f 277 	313 	314
f 279 	278 	315
f 278 	314 	315
f 280 	279 	316
f 279 	315 	316
f 281 	280 	317
f 280 	316 	317
f 282 	281 	318
f 281 	317 	318
f 283 	282 	319
f 282 	318 	319
f 284 	283 	320
f 283 	319 	320
f 285 	284 	321
f 284 	320 	321
f 286 	285 	322
f 285 	321 	322
f 287 	286 	323
f 286 	322 	323
f 288 	287 	324
f 287 	323 	324
f 289 	288 	325
f 288 	324 	325
f 290 	289 	326
f 289 	325 	326
f 291 	290 	327
f 290 	326 	327
f 292 	291 	328
f 291 	327 	328
f 293 	292 	329
f 292 	328 	329
f 294 	293 	330
f 293 	329 	330
f 295 	294 	331
f 294 	330 	331
f 296 	295 	332
f 295 	331 	332
f 261 	296 	297
f 296 	332 	297
f 298 	297 	334
f 297 	333 	334
f 299 	298 	335
f 298 	334 	335
f 300 	299 	336
f 299 	335 	336
f 301 	300 	337
f 300 	336 	337
f 302 	301 	338
f 301 	337 	338
f 303 	302 	339
f 302 	338 	339
f 304 	303 	340
f 303 	339 	340
f 305 	304 	341
f 304 	340 	341
f 306 	305 	342
f 305 	341 	342
f 307 	306 	343
f 306 	342 	343
f 308 	307 	344
f 307 	343 	344
f 309 	308 	345
f 308 	344 	345
f 310 	309 	346
f 309 	345 	346
f 311 	310 	347
f 310 	346 	347
f 312 	311 	348
f 311 	347 	348
f 313 	312 	349
f 312 	348 	349
f 314 	313 	350
f 313 	349 	350
f 315 	314 	351
f 314 	350 	351
f 316 	315 	352
f 315 	351 	352
f 317 	316 	353
f 316 	352 	353
f 318 	317 	354
f 317 	353 	354
f 319 	318 	355
f 318 	354 	355
f 320 	319 	356
f 319 	355 	356
f 321 	320 	357
f 320 	356 	357
f 322 	321 	358
f 321 	357 	358
f 323 	322 	359
f 322 	358 	359
f 324 	323 	360
f 323 	359 	360
f 325 	324 	361
f 324 	360 	361
f 326 	325 	362
f 325 	361 	362
f 327 	326 	363
f 326 	362 	363
f 328 	327 	364
f 327 	363 	364
f 329 	328 	365
f 328 	364 	365
f 330 	329 	366
f 329 	365 	366
f 331 	330 	367
f 330 	366 	367
f 332 	331 	368
f 331 	367 	368
f 297 	332 	333
f 332 	368 	333
f 334 	333 	370
f 333 	369 	370
f 335 	334 	371
f 334 	370 	371
f 336 	335 	372
f 335 	371 	372
f 337 	336 	373
f 336 	372 	373
f 338 	337 	374
f 337 	373 	374
f 339 	338 	375
f 338 	374 	375
f 340 	339 	376
f 339 	375 	376
f 341 	340 	377
f 340 	376 	377
f 342 	341 	378
f 341 	377 	378
f 343 	342 	379
f 342 	378 	379
f 344 	343 	380
f 343 	379 	380
f 345 	344 	381
f 344 	380 	381
f 346 	345 	382
f 345 	381 	382
f 347 	346 	383
f 346 	382 	383
f 348 	347 	384
f 347 	383 	384
f 349 	348 	385
f 348 	384 	385
f 350 	349 	386
f 349 	385 	386
f 351 	350 	387
f 350 	386 	387
f 352 	351 	388
f 351 	387 	388
f 353 	352 	389
f 352 	388 	389
f 354 	353 	390
f 353 	389 	390
f 355 	354 	391
f 354 	390 	391
f 356 	355 	392
f 355 	391 	392
f 357 	356 	393
f 356 	392 	393
f 358 	357 	394
f 357 	393 	394
f 359 	358 	395
f 358 	394 	395
f 360 	359 	396
f 359 	395 	396
f 361 	360 	397
f 360 	396 	397
f 362 	361 	398
f 361 	397 	398
f 363 	362 	399
f 362 	398 	399
f 364 	363 	400
f 363 	399 	400
f 365 	364 	401
f 364 	400 	401
f 366 	365 	402
f 365 	401 	402
f 367 	366 	403
f 366 	402 	403
f 368 	367 	404
f 367 	403 	404
f 333 	368 	369
f 368 	404 	369
f 370 	369 	406
f 369 	405 	406
f 371 	370 	407
f 370 	406 	407
f 372 	371 	408
f 371 	407 	408
f 373 	372 	409
f 372 	408 	409
f 374 	373 	410
f 373 	409 	410
f 375 	374 	411
f 374 	410 	411
f 376 	375 	412
f 375 	411 	412
f 377 	376 	413
f 376 	412 	413
f 378 	377 	414
f 377 	413 	414
f 379 	378 	415
f 378 	414 	415
f 380 	379 	416
f 379 	415 	416
f 381 	380 	417
f 380 	416 	417
f 382 	381 	418
f 381 	417 	418
f 383 	382 	419
f 382 	418 	419
f 384 	383 	420
f 383 	419 	420
f 385 	384 	421
f 384 	420 	421
f 386 	385 	422
f 385 	421 	422
f 387 	386 	423
f 386 	422 	423
f 388 	387 	424
f 387 	423 	424
f 389 	388 	425
f 388 	424 	425
f 390 	389 	426
f 389 	425 	426
f 391 	390 	427
f 390 	426 	427
f 392 	391 	428
f 391 	427 	428
f 393 	392 	429
f 392 	428 	429
f 394 	393 	430
f 393 	429 	430
f 395 	394 	431
f 394 	430 	431
f 396 	395 	432
f 395 	431 	432
f 397 	396 	433
f 396 	432 	433
f 398 	397 	434
f 397 	433 	434
f 399 	398 	435
f 398 	434 	435
f 400 	399 	436
f 399 	435 	436
f 401 	400 	437
f 400 	436 	437
f 402 	401 	438
f 401 	437 	438
f 403 	402 	439
f 402 	438 	439
f 404 	403 	440
f 403 	439 	440
f 369 	404 	405
f 404 	440 	405
f 406 	405 	442
f 405 	441 	442
f 407 	406 	443
f 406 	442 	443
f 408 	407 	444
f 407 	443 	444
f 409 	408 	445
f 408 	444 	445
f 410 	409 	446
f 409 	445 	446
f 411 	410 	447
f 410 	446 	447
f 412 	411 	448
f 411 	447 	448
f 413 	412 	449
f 412 	448 	449
f 414 	413 	450
f 413 	449 	450
f 415 	414 	451
f 414 	450 	451
f 416 	415 	452
f 415 	451 	452
f 417 	416 	453
f 416 	452 	453
f 418 	417 	454
f 417 	453 	454
f 419 	418 	455
f 418 	454 	455
f 420 	419 	456
f 419 	455 	456
f 421 	420 	457
f 420 	456 	457
f 422 	421 	458
f 421 	457 	458
f 423 	422 	459
f 422 	458 	459
f 424 	423 	460
f 423 	459 	460
f 425 	424 	461
f 424 	460 	461
f 426 	425 	462
f 425 	461 	462
f 427 	426 	463
f 426 	462 	463
f 428 	427 	464
f 427 	463 	464
f 429 	428 	465
f 428 	464 	465
f 430 	429 	466
f 429 	465 	466
f 431 	430 	467
f 430 	466 	467
f 432 	431 	468
f 431 	467 	468
f 433 	432 	469
f 432 	468 	469
f 434 	433 	470
f 433 	469 	470
f 435 	434 	471
f 434 	470 	471
f 436 	435 	472
f 435 	471 	472
f 437 	436 	473
f 436 	472 	473
f 438 	437 	474
f 437 	473 	474
f 439 	438 	475
f 438 	474 	475
f 440 	439 	476
f 439 	475 	476
f 405 	440 	441
f 440 	476 	441
f 442 	441 	478
f 441 	477 	478
f 443 	442 	479
f 442 	478 	479
f 444 	443 	480
f 443 	479 	480
f 445 	444 	481
f 444 	480 	481
f 446 	445 	482
f 445 	481 	482
f 447 	446 	483
f 446 	482 	483
f 448 	447 	484
f 447 	483 	484
f 449 	448 	485
f 448 	484 	485
f 450 	449 	486
f 449 	485 	486
f 451 	450 	487
f 450 	486 	487
f 452 	451 	488
f 451 	487 	488
f 453 	452 	489
f 452 	488 	489
f 454 	453 	490
f 453 	489 	490
f 455 	454 	491
f 454 	490 	491
f 456 	455 	492
f 455 	491 	492
f 457 	456 	493
f 456 	492 	493
f 458 	457 	494
f 457 	493 	494
f 459 	458 	495
f 458 	494 	495
f 460 	459 	496
f 459 	495 	496
f 461 	460 	497
f 460 	496 	497
f 462 	461 	498
f 461 	497 	498
f 463 	462 	499
f 462 	498 	499
f 464 	463 	500
f 463 	499 	500
f 465 	464 	501
f 464 	500 	501
f 466 	465 	502
f 465 	501 	502
f 467 	466 	503
f 466 	502 	503
f 468 	467 	504
f 467 	503 	504
f 469 	468 	505
f 468 	504 	505
f 470 	469 	506
f 469 	505 	506
f 471 	470 	507
f 470 	506 	507
f 472 	471 	508
f 471 	507 	508
f 473 	472 	509
f 472 	508 	509
f 474 	473 	510
f 473 	509 	510
f 475 	474 	511
f 474 	510 	511
f 476 	475 	512
f 475 	511 	512
f 441 	476 	477
f 476 	512 	477
f 478 	477 	514
f 477 	513 	514
f 479 	478 	515
f 478 	514 	515
f 480 	479 	516
f 479 	515 	516
f 481 	480 	517
f 480 	516 	517
f 482 	481 	518
f 481 	517 	518
f 483 	482 	519
f 482 	518 	519
f 484 	483 	520
f 483 	519 	520
f 485 	484 	521
f 484 	520 	521
f 486 	485 	522
f 485 	521 	522
f 487 	486 	523
f 486 	522 	523
f 488 	487 	524
f 487 	523 	524
f 489 	488 	525
f 488 	524 	525
f 490 	489 	526
f 489 	525 	526
f 491 	490 	527
f 490 	526 	527
f 492 	491 	528
f 491 	527 	528
f 493 	492 	529
f 492 	528 	529
f 494 	493 	530
f 493 	529 	530
f 495 	494 	531
f 494 	530 	531
f 496 	495 	532
f 495 	531 	532
f 497 	496 	533
f 496 	532 	533
f 498 	497 	534
f 497 	533 	534
f 499 	498 	535
f 498 	534 	535
f 500 	499 	536
f 499 	535 	536
f 501 	500 	537
f 500 	536 	537
f 502 	501 	538
f 501 	537 	538
f 503 	502 	539
f 502 	538 	539
f 504 	503 	540
f 503 	539 	540
f 505 	504 	541
f 504 	540 	541
f 506 	505 	542
f 505 	541 	542
f 507 	506 	543
f 506 	542 	543
f 508 	507 	544
f 507 	543 	544
f 509 	508 	545
f 508 	544 	545
f 510 	509 	546
f 509 	545 	546
f 511 	510 	547
f 510 	546 	547
f 512 	511 	548
f 511 	547 	548
f 477 	512 	513
f 512 	548 	513
f 514 	513 	550
f 513 	549 	550
f 515 	514 	551
f 514 	550 	551
f 516 	515 	552
f 515 	551 	552
f 517 	516 	553
f 516 	552 	553
f 518 	517 	554
f 517 	553 	554
f 519 	518 	555
f 518 	554 	555
f 520 	519 	556
f 519 	555 	556
f 521 	520 	557
f 520 	556 	557
f 522 	521 	558
f 521 	557 	558
f 523 	522 	559
f 522 	558 	559
f 524 	523 	560
f 523 	559 	560
f 525 	524 	561
f 524 	560 	561
f 526 	525 	562
f 525 	561 	562
f 527 	526 	563
f 526 	562 	563
f 528 	527 	564
f 527 	563 	564
f 529 	528 	565
f 528 	564 	565
f 530 	529 	566
f 529 	565 	566
f 531 	530 	567
f 530 	566 	567
f 532 	531 	568
f 531 	567 	568
f 533 	532 	569
f 532 	568 	569
f 534 	533 	570
f 533 	569 	570
f 535 	534 	571
f 534 	570 	571
f 536 	535 	572
f 535 	571 	572
f 537 	536 	573
f 536 	572 	573
f 538 	537 	574
f 537 	573 	574
f 539 	538 	575
f 538 	574 	575
f 540 	539 	576
f 539 	575 	576
f 541 	540 	577
f 540 	576 	577
f 542 	541 	578
f 541 	577 	578
f 543 	542 	579
f 542 	578 	579
f 544 	543 	580
f 543 	579 	580
f 545 	544 	581
f 544 	580 	581
f 546 	545 	582
f 545 	581 	582
f 547 	546 	583
f 546 	582 	583
f 548 	547 	584
f 547 	583 	584
f 513 	548 	549
f 548 	584 	549
f 550 	549 	586
f 549 	585 	586
f 551 	550 	587
f 550 	586 	587
f 552 	551 	588
f 551 	587 	588
f 553 	552 	589
f 552 	588 	589
f 554 	553 	590
f 553 	589 	590
f 555 	554 	591
f 554 	590 	591
f 556 	555 	592
f 555 	591 	592
f 557 	556 	593
f 556 	592 	593
f 558 	557 	594
f 557 	593 	594
f 559 	558 	595
f 558 	594 	595
f 560 	559 	596
f 559 	595 	596
f 561 	560 	597
f 560 	596 	597
f 562 	561 	598
f 561 	597 	598
f 563 	562 	599
f 562 	598 	599
f 564 	563 	600
f 563 	599 	600
f 565 	564 	601
f 564 	600 	601
f 566 	565 	602
f 565 	601 	602
f 567 	566 	603
f 566 	602 	603
f 568 	567 	604
f 567 	603 	604
f 569 	568 	605
f 568 	604 	605
f 570 	569 	606
f 569 	605 	606
f 571 	570 	607
f 570 	606 	607
f 572 	571 	608
f 571 	607 	608
f 573 	572 	609
f 572 	608 	609
f 574 	573 	610
f 573 	609 	610
f 575 	574 	611
f 574 	610 	611
f 576 	575 	612
f 575 	611 	612
f 577 	576 	613
f 576 	612 	613
f 578 	577 	614
f 577 	613 	614
f 579 	578 	615
f 578 	614 	615
f 580 	579 	616
f 579 	615 	616
f 581 	580 	617
f 580 	616 	617
f 582 	581 	618
f 581 	617 	618
f 583 	582 	619
f 582 	618 	619
f 584 	583 	620
f 583 	619 	620
f 549 	584 	585
f 584 	620 	585
f 586 	585 	622
f 585 	621 	622
f 587 	586 	623
f 586 	622 	623
f 588 	587 	624
f 587 	623 	624
f 589 	588 	625
f 588 	624 	625
f 590 	589 	626
f 589 	625 	626
f 591 	590 	627
f 590 	626 	627
f 592 	591 	628
f 591 	627 	628
f 593 	592 	629
f 592 	628 	629
f 594 	593 	630
f 593 	629 	630
f 595 	594 	631
f 594 	630 	631
f 596 	595 	632
f 595 	631 	632
f 597 	596 	633
f 596 	632 	633
f 598 	597 	634
f 597 	633 	634
f 599 	598 	635
f 598 	634 	635
f 600 	599 	636
f 599 	635 	636
f 601 	600 	637
f 600 	636 	637
f 602 	601 	638
f 601 	637 	638
f 603 	602 	639
f 602 	638 	639
f 604 	603 	640
f 603 	639 	640
f 605 	604 	641
f 604 	640 	641
f 606 	605 	642
f 605 	641 	642
f 607 	606 	643
f 606 	642 	643
f 608 	607 	644
f 607 	643 	644
f 609 	608 	645
f 608 	644 	645
f 610 	609 	646
f 609 	645 	646
f 611 	610 	647
f 610 	646 	647
f 612 	611 	648
f 611 	647 	648
f 613 	612 	649
f 612 	648 	649
f 614 	613 	650
f 613 	649 	650
f 615 	614 	651
f 614 	650 	651
f 616 	615 	652
f 615 	651 	652
f 617 	616 	653
f 616 	652 	653
f 618 	617 	654
f 617 	653 	654
f 619 	618 	655
f 618 	654 	655
f 620 	619 	656
f 619 	655 	656
f 585 	620 	621
f 620 	656 	621
f 622 	621 	658
f 621 	657 	658
f 623 	622 	659
f 622 	658 	659
f 624 	623 	660
f 623 	659 	660
f 625 	624 	661
f 624 	660 	661
f 626 	625 	662
f 625 	661 	662
f 627 	626 	663
f 626 	662 	663
f 628 	627 	664
f 627 	663 	664
f 629 	628 	665
f 628 	664 	665
f 630 	629 	666
f 629 	665 	666
f 631 	630 	667
f 630 	666 	667
f 632 	631 	668
f 631 	667 	668
f 633 	632 	669
f 632 	668 	669
f 634 	633 	670
f 633 	669 	670
f 635 	634 	671
f 634 	670 	671
f 636 	635 	672
f 635 	671 	672
f 637 	636 	673
f 636 	672 	673
f 638 	637 	674
f 637 	673 	674
f 639 	638 	675
f 638 	674 	675
f 640 	639 	676
f 639 	675 	676
f 641 	640 	677
f 640 	676 	677
f 642 	641 	678
f 641 	677 	678
f 643 	642 	679
f 642 	678 	679
f 644 	643 	680
f 643 	679 	680
f 645 	644 	681
f 644 	680 	681
f 646 	645 	682
f 645 	681 	682
f 647 	646 	683
f 646 	682 	683
f 648 	647 	684
f 647 	683 	684
f 649 	648 	685
f 648 	684 	685
f 650 	649 	686
f 649 	685 	686
f 651 	650 	687
f 650 	686 	687
f 652 	651 	688
f 651 	687 	688
f 653 	652 	689
f 652 	688 	689
f 654 	653 	690
f 653 	689 	690
f 655 	654 	691
f 654 	690 	691
f 656 	655 	692
f 655 	691 	692
f 621 	656 	657
f 656 	692 	657
f 658 	657 	694
f 657 	693 	694
f 659 	658 	695
f 658 	694 	695
f 660 	659 	696
f 659 	695 	696
f 661 	660 	697
f 660 	696 	697
f 662 	661 	698
f 661 	697 	698
f 663 	662 	699
f 662 	698 	699
f 664 	663 	700
f 663 	699 	700
f 665 	664 	701
f 664 	700 	701
f 666 	665 	702
f 665 	701 	702
f 667 	666 	703
f 666 	702 	703
f 668 	667 	704
f 667 	703 	704
f 669 	668 	705
f 668 	704 	705
f 670 	669 	706
f 669 	705 	706
f 671 	670 	707
f 670 	706 	707
f 672 	671 	708
f 671 	707 	708
f 673 	672 	709
f 672 	708 	709
f 674 	673 	710
f 673 	709 	710
f 675 	674 	711
f 674 	710 	711
f 676 	675 	712
f 675 	711 	712
f 677 	676 	713
f 676 	712 	713
f 678 	677 	714
f 677 	713 	714
f 679 	678 	715
f 678 	714 	715
f 680 	679 	716
f 679 	715 	716
f 681 	680 	717
f 680 	716 	717
f 682 	681 	718
f 681 	717 	718
f 683 	682 	719
f 682 	718 	719
f 684 	683 	720
f 683 	719 	720
f 685 	684 	721
f 684 	720 	721
f 686 	685 	722
f 685 	721 	722
f 687 	686 	723
f 686 	722 	723
f 688 	687 	724
f 687 	723 	724
f 689 	688 	725
f 688 	724 	725
f 690 	689 	726
f 689 	725 	726
f 691 	690 	727
f 690 	726 	727
f 692 	691 	728
f 691 	727 	728
f 657 	692 	693
f 692 	728 	693
f 694 	693 	730
f 693 	729 	730
f 695 	694 	731
f 694 	730 	731
f 696 	695 	732
f 695 	731 	732
f 697 	696 	733
f 696 	732 	733
f 698 	697 	734
f 697 	733 	734
f 699 	698 	735
f 698 	734 	735
f 700 	699 	736
f 699 	735 	736
f 701 	700 	737
f 700 	736 	737
f 702 	701 	738
f 701 	737 	738
f 703 	702 	739
f 702 	738 	739
f 704 	703 	740
f 703 	739 	740
f 705 	704 	741
f 704 	740 	741
f 706 	705 	742
f 705 	741 	742
f 707 	706 	743
f 706 	742 	743
f 708 	707 	744
f 707 	743 	744
f 709 	708 	745
f 708 	744 	745
f 710 	709 	746
f 709 	745 	746
f 711 	710 	747
f 710 	746 	747
f 712 	711 	748
f 711 	747 	748
f 713 	712 	749
f 712 	748 	749
f 714 	713 	750
f 713 	749 	750
f 715 	714 	751
f 714 	750 	751
f 716 	715 	752
f 715 	751 	752
f 717 	716 	753
f 716 	752 	753
f 718 	717 	754
f 717 	753 	754
f 719 	718 	755
f 718 	754 	755
f 720 	719 	756
f 719 	755 	756
f 721 	720 	757
f 720 	756 	757
f 722 	721 	758
f 721 	757 	758
f 723 	722 	759
f 722 	758 	759
f 724 	723 	760
f 723 	759 	760
f 725 	724 	761
f 724 	760 	761
f 726 	725 	762
f 725 	761 	762
f 727 	726 	763
f 726 	762 	763
f 728 	727 	764
f 727 	763 	764
f 693 	728 	729
f 728 	764 	729
f 730 	729 	766
f 729 	765 	766
f 731 	730 	767
f 730 	766 	767
f 732 	731 	768
f 731 	767 	768
f 733 	732 	769
f 732 	768 	769
f 734 	733 	770
f 733 	769 	770
f 735 	734 	771
f 734 	770 	771
f 736 	735 	772
f 735 	771 	772
f 737 	736 	773
f 736 	772 	773
f 738 	737 	774
f 737 	773 	774
f 739 	738 	775
f 738 	774 	775
f 740 	739 	776
f 739 	775 	776
f 741 	740 	777
f 740 	776 	777
f 742 	741 	778
f 741 	777 	778
f 743 	742 	779
f 742 	778 	779
f 744 	743 	780
f 743 	779 	780
f 745 	744 	781
f 744 	780 	781
f 746 	745 	782
f 745 	781 	782
f 747 	746 	783
f 746 	782 	783
f 748 	747 	784
f 747 	783 	784
f 749 	748 	785
f 748 	784 	785
f 750 	749 	786
f 749 	785 	786
f 751 	750 	787
f 750 	786 	787
f 752 	751 	788
f 751 	787 	788
f 753 	752 	789
f 752 	788 	789
f 754 	753 	790
f 753 	789 	790
f 755 	754 	791
f 754 	790 	791
f 756 	755 	792
f 755 	791 	792
f 757 	756 	793
f 756 	792 	793
f 758 	757 	794
f 757 	793 	794
f 759 	758 	795
f 758 	794 	795
f 760 	759 	796
f 759 	795 	796
f 761 	760 	797
f 760 	796 	797
f 762 	761 	798
f 761 	797 	798
f 763 	762 	799
f 762 	798 	799
f 764 	763 	800
f 763 	799 	800
f 729 	764 	765
f 764 	800 	765
f 766 	765 	802
f 765 	801 	802
f 767 	766 	803
f 766 	802 	803
f 768 	767 	804
f 767 	803 	804
f 769 	768 	805
f 768 	804 	805
f 770 	769 	806
f 769 	805 	806
f 771 	770 	807
f 770 	806 	807
f 772 	771 	808
f 771 	807 	808
f 773 	772 	809
f 772 	808 	809
f 774 	773 	810
f 773 	809 	810
f 775 	774 	811
f 774 	810 	811
f 776 	775 	812
f 775 	811 	812
f 777 	776 	813
f 776 	812 	813
f 778 	777 	814
f 777 	813 	814
f 779 	778 	815
f 778 	814 	815
f 780 	779 	816
f 779 	815 	816
f 781 	780 	817
f 780 	816 	817
f 782 	781 	818
f 781 	817 	818
f 783 	782 	819
f 782 	818 	819
f 784 	783 	820
f 783 	819 	820
f 785 	784 	821
f 784 	820 	821
f 786 	785 	822
f 785 	821 	822
f 787 	786 	823
f 786 	822 	823
f 788 	787 	824
f 787 	823 	824
f 789 	788 	825
f 788 	824 	825
f 790 	789 	826
f 789 	825 	826
f 791 	790 	827
f 790 	826 	827
f 792 	791 	828
f 791 	827 	828
f 793 	792 	829
f 792 	828 	829
f 794 	793 	830
f 793 	829 	830
f 795 	794 	831
f 794 	830 	831
f 796 	795 	832
f 795 	831 	832
f 797 	796 	833
f 796 	832 	833
f 798 	797 	834
f 797 	833 	834
f 799 	798 	835
f 798 	834 	835
f 800 	799 	836
f 799 	835 	836
f 765 	800 	801
f 800 	836 	801
f 802 	801 	837
f 803 	802 	837
f 804 	803 	837
f 805 	804 	837
f 806 	805 	837
f 807 	806 	837
f 808 	807 	837
f 809 	808 	837
f 810 	809 	838
f 809 	837 	838
f 811 	810 	838
f 812 	811 	838
f 813 	812 	838
f 814 	813 	838
f 815 	814 	838
f 816 	815 	838
f 817 	816 	838
f 818 	817 	838
f 819 	818 	839
f 818 	838 	839
f 820 	819 	839
f 821 	820 	839
f 822 	821 	839
f 823 	822 	839
f 824 	823 	839
f 825 	824 	839
f 826 	825 	839
f 827 	826 	839
f 828 	827 	840
f 827 	839 	840
f 829 	828 	840
f 830 	829 	840
f 831 	830 	840
f 832 	831 	840
f 833 	832 	840
f 834 	833 	840
f 835 	834 	840
f 836 	835 	840
f 801 	836 	837
f 836 	840 	837
f 257 	258 	260
f 258 	259 	260
f 837 	840 	838
f 838 	840 	839
# 1164 faces

 #end of obj_32

