# Object Export From Tinkercad Server 2015

mtllib obj.mtl

o obj_0
v -26 		-69 		21
v -26 		-69 		0
v -26 		53 		0
v -26 		53 		21
v -67 		53 		21
v -67 		53 		0
v -67 		-69 		0
v -67 		-69 		21
v -62.003 		47.003 		21
v -30.998 		47.003 		21
v -30.998 		-63.003 		21
v -62.003 		-63.003 		21
v -30.998 		-63.003 		0
v -62.003 		-63.003 		0
v -62.003 		47.003 		0
v -30.998 		47.003 		0
# 16 vertices

g group_0_12568524

usemtl color_12568524
s 0

f 1 	2 	3
f 1 	3 	4
f 5 	6 	7
f 5 	7 	8
f 9 	10 	5
f 8 	11 	12
f 9 	5 	12
f 5 	8 	12
f 11 	13 	14
f 11 	14 	12
f 4 	5 	10
f 4 	10 	11
f 8 	1 	11
f 4 	11 	1
f 15 	9 	12
f 15 	12 	14
f 13 	11 	10
f 13 	10 	16
f 15 	6 	16
f 14 	13 	7
f 5 	3 	6
f 9 	15 	16
f 9 	16 	10
f 1 	8 	2
f 7 	2 	8
f 14 	7 	15
f 7 	6 	15
f 3 	16 	6
f 5 	4 	3
f 2 	7 	13
f 2 	13 	16
f 2 	16 	3
# 32 faces

 #end of obj_0

