# Object Export From Tinkercad Server 2015

mtllib obj.mtl

o obj_0
v -26 		53 		0
v -26 		53 		21
v -26 		-25 		17
v -26 		-25 		3.4
v -67 		53 		21
v -0.76 		-57.519 		3.4
v -67 		53 		0
v -0.76 		-57.519 		6.8
v -6.52 		-57.519 		6.8
v -25.72 		-57.519 		3.4
v -6.52 		-57.519 		10.2
v -25.72 		-57.519 		0
v -26 		-57.519 		3.4
v -12.28 		-57.519 		10.2
v -25.72 		-25 		0
v -0.76 		-25 		6.8
v -25.72 		-25 		3.4
v -6.52 		-25 		6.8
v -6.52 		-25 		10.2
v -12.28 		-57.519 		13.6
v -18 		-57.519 		13.6
v -26 		-57.519 		17
v -12.28 		-25 		10.2
v -12.28 		-25 		13.6
v -18 		-25 		13.6
v 5 		-25 		0
v -0.76 		-25 		3.4
v 5 		-25 		3.4
v -18 		-25 		17
v -18 		-57.519 		17
v 5 		-57.519 		3.4
v 5 		-57.519 		0
v -26 		-69 		21
v -26 		-69 		0
v -67 		-69 		0
v -67 		-69 		21
# 36 vertices

g group_0_12568524

usemtl color_12568524
s 0

f 1 	2 	3
f 1 	3 	4
f 8 	9 	6
f 9 	12 	6
f 11 	14 	9
f 14 	21 	10
f 32 	6 	12
f 10 	12 	14
f 14 	12 	9
f 16 	18 	9
f 16 	9 	8
f 17 	10 	13
f 17 	13 	4
f 3 	25 	17
f 19 	11 	9
f 19 	9 	18
f 36 	5 	7
f 18 	27 	15
f 2 	1 	7
f 2 	7 	5
f 20 	21 	14
f 22 	3 	33
f 2 	33 	3
f 26 	32 	12
f 19 	23 	14
f 19 	14 	11
f 33 	5 	36
f 24 	20 	14
f 24 	14 	23
f 26 	12 	15
f 13 	10 	22
f 22 	10 	21
f 18 	23 	19
f 26 	27 	28
f 5 	33 	2
f 24 	25 	21
f 24 	21 	20
f 17 	23 	15
f 25 	3 	29
f 29 	30 	21
f 29 	21 	25
f 30 	22 	21
f 23 	18 	15
f 26 	15 	27
f 29 	3 	22
f 29 	22 	30
f 23 	17 	25
f 28 	31 	32
f 28 	32 	26
f 27 	18 	16
f 23 	25 	24
f 7 	1 	34
f 4 	3 	17
f 28 	27 	6
f 28 	6 	31
f 13 	22 	34
f 33 	34 	22
f 7 	35 	36
f 4 	13 	34
f 4 	34 	1
f 16 	8 	6
f 16 	6 	27
f 15 	12 	10
f 15 	10 	17
f 34 	35 	7
f 36 	35 	34
f 36 	34 	33
f 31 	6 	32
# 68 faces

 #end of obj_0

