# Object Export From Tinkercad Server 2015

mtllib obj.mtl

o obj_0
v 41 		62.4026 		23
v 41 		62.4026 		0
v 41 		63 		0
v 41 		63 		23
v -62 		63 		23
v -62 		63 		0
v -62 		-40.6857 		0
v 25.003 		55.5251 		23
v -56.003 		-27.0027 		23
v -62 		-40.6857 		23
v -56.003 		56.003 		23
v 25.003 		56.003 		23
v -56.003 		56.003 		0
v 25.003 		56.003 		0
v -56.003 		-27.0027 		0
v 25.003 		55.5251 		0
# 16 vertices

g group_0_12568524

usemtl color_12568524
s 0

f 1 	2 	3
f 1 	3 	4
f 9 	1 	8
f 11 	12 	5
f 11 	13 	14
f 11 	14 	12
f 13 	11 	9
f 13 	9 	15
f 16 	8 	12
f 16 	12 	14
f 6 	14 	13
f 10 	1 	9
f 11 	5 	9
f 10 	9 	5
f 5 	6 	7
f 5 	7 	10
f 4 	5 	12
f 8 	1 	12
f 4 	12 	1
f 16 	2 	15
f 7 	6 	15
f 13 	15 	6
f 4 	3 	6
f 4 	6 	5
f 1 	10 	7
f 7 	15 	2
f 2 	16 	14
f 6 	3 	14
f 2 	14 	3
f 1 	7 	2
f 8 	16 	15
f 8 	15 	9
# 32 faces

 #end of obj_0

