# Object Export From Tinkercad Server 2015

mtllib obj.mtl

o obj_0
v -62 		16.0014 		1.496
v -62 		16.0014 		22
v 78.252 		-73.178 		2
v -62 		93 		1.496
v 75.226 		-66.518 		2
v -62 		93 		22
v 79.4104 		-77.6097 		22
v 20.219 		-3.463 		22
v 79.4104 		-77.6097 		2
v 20.219 		-3.463 		2
v 80 		-78 		2
v 80.039 		16 		22
v 80.039 		93 		22
v 31.62 		-22.125 		22
v 41.336 		-29.415 		22
v -61.974 		16.002 		1.496
v -61.974 		16.002 		22
v 80.039 		16 		1.496
v 80.039 		93 		1.496
v -61.9528 		16 		1.496
v -61.9528 		16 		2
v 80 		-78 		22
v 58.237 		-44.513 		22
v -0.572 		-2.763 		2
v 58.237 		-44.513 		2
v -23.0693 		16 		2
v -23.0693 		16 		1.496
v 73.967 		16 		1.496
v 73.967 		16 		2
v -47.978 		21.921 		1.496
v -39.222 		20.414 		1.496
v -29.86 		18.114 		1.496
v -0.572 		-2.763 		22
v -55.979 		22.611 		1.496
v -55.979 		22.611 		22
v -53.233 		15.178 		2
v -53.233 		15.178 		22
v 73.967 		22.608 		1.496
v 74.002 		22.608 		1.496
v -56.003 		22.6105 		1.496
v -56.003 		22.6105 		22
v 74.002 		87.003 		1.496
v -56.003 		87.003 		1.496
v -43.666 		13.375 		2
v -43.666 		13.375 		22
v 74.002 		22.608 		22
v -33.438 		10.625 		22
v -33.438 		10.625 		2
v 73.967 		22.608 		22
v -22.723 		6.975 		22
v -22.723 		6.975 		2
v -11.705 		2.486 		22
v -29.86 		18.114 		22
v -11.705 		2.486 		2
v -39.222 		20.414 		22
v -9.968 		11.307 		22
v -20.053 		15.061 		22
v -9.968 		11.307 		2
v -47.978 		21.921 		22
v -20.053 		15.061 		2
v 75.226 		-66.518 		22
v 78.252 		-73.178 		22
v 65.132 		-52.062 		2
v 65.132 		-52.062 		22
v 29.686 		-9.275 		2
v 29.686 		-9.275 		22
v 74.002 		87.003 		22
v 10.485 		-8.684 		22
v -56.003 		87.003 		22
v 21.277 		-15.175 		22
v 70.828 		-59.44 		2
v 70.828 		-59.44 		22
v 80 		16 		22
v 46.746 		-21.649 		2
v 10.485 		-8.684 		2
v 0.221 		6.917 		22
v 0.221 		6.917 		2
v 21.277 		-15.175 		2
v 31.62 		-22.125 		2
v 41.336 		-29.415 		2
v 50.259 		-36.921 		2
v 50.259 		-36.921 		22
v 46.746 		-21.649 		22
v 38.578 		-15.372 		2
v 38.578 		-15.372 		22
v 80 		16 		2
v 54.047 		-27.998 		2
v 60.359 		-34.311 		2
v 65.572 		-40.481 		2
v 69.597 		-46.401 		2
v 72.367 		-51.97 		2
v 73.4269 		-55.6763 		2
v 73.967 		-56.003 		2
v 73.4269 		-55.6763 		22
v 72.367 		-51.97 		22
v 69.597 		-46.401 		22
v 10.342 		1.966 		2
v 65.572 		-40.481 		22
v 60.359 		-34.311 		22
v 54.047 		-27.998 		22
v 73.967 		-56.003 		22
v 10.342 		1.966 		22
# 102 vertices

g group_0_14541540

usemtl color_14541540
s 0

f 4 	1 	2
f 4 	2 	6
f 7 	9 	22
f 15 	85 	14
f 16 	17 	2
f 16 	2 	1
f 13 	12 	18
f 13 	18 	19
f 20 	21 	16
f 17 	16 	21
f 22 	9 	11
f 5 	93 	3
f 27 	32 	26
f 19 	4 	6
f 24 	33 	54
f 32 	20 	31
f 6 	13 	19
f 30 	20 	34
f 35 	30 	34
f 17 	21 	37
f 36 	37 	21
f 40 	41 	35
f 40 	35 	34
f 4 	19 	42
f 43 	4 	42
f 44 	45 	37
f 44 	37 	36
f 19 	39 	42
f 46 	39 	38
f 48 	47 	45
f 48 	45 	44
f 46 	38 	49
f 4 	43 	40
f 34 	20 	40
f 20 	16 	40
f 1 	4 	16
f 51 	50 	47
f 51 	47 	48
f 19 	18 	39
f 53 	26 	32
f 54 	52 	50
f 54 	50 	51
f 31 	55 	53
f 31 	53 	32
f 54 	33 	52
f 33 	76 	52
f 50 	52 	56
f 50 	56 	57
f 50 	57 	53
f 30 	59 	55
f 30 	55 	31
f 60 	57 	56
f 60 	56 	58
f 26 	53 	57
f 26 	57 	60
f 30 	35 	59
f 63 	64 	25
f 23 	25 	64
f 22 	73 	62
f 22 	62 	7
f 28 	29 	38
f 49 	38 	29
f 50 	53 	47
f 66 	65 	10
f 55 	47 	53
f 68 	102 	33
f 69 	43 	67
f 42 	67 	43
f 64 	63 	71
f 64 	71 	72
f 67 	42 	39
f 67 	39 	46
f 73 	12 	46
f 13 	46 	12
f 70 	8 	68
f 43 	69 	40
f 17 	37 	41
f 61 	5 	3
f 61 	3 	62
f 40 	69 	41
f 62 	3 	9
f 62 	9 	7
f 86 	11 	3
f 9 	3 	11
f 35 	37 	59
f 35 	41 	37
f 47 	55 	45
f 55 	59 	45
f 33 	24 	68
f 75 	68 	24
f 76 	77 	56
f 58 	56 	77
f 45 	59 	37
f 78 	70 	68
f 78 	68 	75
f 93 	101 	29
f 49 	29 	101
f 79 	14 	70
f 79 	70 	78
f 77 	97 	24
f 67 	6 	69
f 80 	15 	14
f 80 	14 	79
f 46 	13 	67
f 6 	67 	13
f 97 	10 	75
f 21 	20 	26
f 79 	78 	65
f 10 	65 	78
f 81 	82 	15
f 81 	15 	80
f 41 	6 	17
f 69 	6 	41
f 2 	17 	6
f 27 	26 	20
f 80 	79 	84
f 65 	84 	79
f 74 	87 	80
f 84 	74 	80
f 25 	23 	82
f 25 	82 	81
f 29 	28 	86
f 18 	86 	28
f 84 	85 	83
f 84 	83 	74
f 10 	8 	66
f 81 	80 	87
f 87 	88 	81
f 66 	85 	84
f 66 	84 	65
f 71 	63 	92
f 25 	90 	63
f 73 	86 	12
f 18 	12 	86
f 82 	100 	15
f 90 	25 	89
f 88 	89 	25
f 25 	81 	88
f 91 	63 	90
f 92 	63 	91
f 5 	61 	71
f 72 	71 	61
f 23 	99 	82
f 8 	70 	66
f 92 	93 	71
f 4 	40 	16
f 94 	92 	91
f 94 	91 	95
f 100 	82 	99
f 95 	91 	90
f 95 	90 	96
f 71 	93 	5
f 86 	3 	93
f 64 	96 	23
f 96 	90 	89
f 96 	89 	98
f 30 	31 	20
f 78 	75 	10
f 75 	24 	97
f 20 	32 	27
f 66 	14 	85
f 85 	15 	83
f 98 	89 	88
f 98 	88 	99
f 96 	98 	23
f 72 	94 	64
f 38 	39 	28
f 29 	86 	93
f 99 	88 	87
f 99 	87 	100
f 18 	28 	39
f 87 	74 	100
f 83 	100 	74
f 86 	73 	11
f 22 	11 	73
f 96 	64 	95
f 99 	23 	98
f 83 	15 	100
f 92 	94 	93
f 101 	93 	94
f 72 	101 	94
f 94 	95 	64
f 72 	61 	101
f 97 	102 	8
f 97 	8 	10
f 77 	76 	102
f 77 	102 	97
f 46 	49 	73
f 61 	62 	101
f 73 	101 	62
f 56 	52 	76
f 76 	33 	102
f 102 	68 	8
f 14 	66 	70
f 101 	73 	49
f 54 	51 	58
f 58 	77 	54
f 24 	54 	77
f 21 	26 	36
f 44 	36 	26
f 51 	48 	26
f 48 	44 	26
f 60 	58 	51
f 26 	60 	51
# 204 faces

 #end of obj_0

