# Object Export From Tinkercad Server 2015

mtllib obj.mtl

o obj_0
v -62.9643 		10.3918 		0
v 67 		-54 		0
v 66.9762 		10.3901 		0
v -63 		10.3918 		0
v -63 		-54 		0
v 66.9762 		10.3901 		17.1838
v 67 		10.3906 		0
v 67 		10.3906 		17.1838
v 66.9568 		10.3918 		17.1838
v 66.9568 		10.3918 		16.7615
v 10.7785 		26.0825 		16.7615
v 58.9761 		11.0792 		16.7615
v 50.22 		12.587 		16.7615
v 40.8589 		14.8867 		16.7615
v 31.0521 		17.939 		16.7615
v 20.9679 		21.693 		16.7615
v -58.5949 		79.3981 		16.7615
v -61.3645 		84.9676 		16.7615
v -62.4247 		88.6736 		16.7615
v -62.9643 		89 		16.7615
v 0.6587 		31.034 		16.7615
v -9.2186 		36.4621 		16.7615
v -58.5949 		79.3981 		0
v -61.3645 		84.9676 		0
v -62.4247 		88.6736 		0
v -62.9643 		89 		0
v 0.6587 		31.034 		0
v -9.2186 		36.4621 		0
v -18.6849 		42.2741 		0
v -27.5774 		48.3704 		0
v -35.7441 		54.6474 		0
v -43.0459 		60.9963 		0
v -49.3565 		67.3092 		0
v -54.5697 		73.4791 		0
v 67 		-54 		17.1838
v -63 		10.3918 		17.1838
v -63 		-54 		17.1838
v 10.7785 		26.0825 		0
v 58.9761 		11.0792 		0
v 50.22 		12.587 		0
v 40.8589 		14.8867 		0
v 31.0521 		17.939 		0
v 20.9679 		21.693 		0
v -18.6849 		42.2741 		16.7615
v -27.5774 		48.3704 		16.7615
v -35.7441 		54.6474 		16.7615
v -43.0459 		60.9963 		16.7615
v -49.3565 		67.3092 		16.7615
v -54.5697 		73.4791 		16.7615
v -62.9643 		10.3918 		16.7615
# 50 vertices

g group_0_8273816

usemtl color_8273816
s 0

f 5 	42 	41
f 39 	2 	40
f 41 	40 	2
f 4 	1 	5
f 41 	2 	5
f 3 	6 	7
f 7 	6 	8
f 10 	9 	6
f 6 	3 	10
f 12 	50 	10
f 12 	13 	50
f 13 	14 	50
f 14 	15 	50
f 15 	16 	50
f 18 	50 	17
f 20 	50 	18
f 18 	19 	20
f 24 	23 	1
f 24 	26 	25
f 24 	1 	26
f 5 	1 	28
f 1 	29 	28
f 1 	32 	31
f 1 	33 	32
f 1 	34 	33
f 1 	23 	34
f 28 	27 	5
f 1 	30 	29
f 1 	31 	30
f 27 	38 	5
f 8 	2 	7
f 8 	35 	2
f 4 	5 	36
f 36 	5 	37
f 35 	5 	2
f 35 	37 	5
f 5 	38 	43
f 5 	43 	42
f 50 	21 	22
f 50 	11 	21
f 50 	22 	44
f 44 	45 	50
f 50 	47 	48
f 49 	17 	50
f 50 	48 	49
f 46 	47 	50
f 45 	46 	50
f 50 	16 	11
f 20 	26 	50
f 26 	1 	50
f 19 	25 	26
f 19 	26 	20
f 38 	11 	43
f 43 	11 	16
f 27 	21 	38
f 38 	21 	11
f 10 	3 	39
f 39 	12 	10
f 40 	13 	39
f 39 	13 	12
f 41 	14 	40
f 40 	14 	13
f 42 	15 	41
f 41 	15 	14
f 43 	16 	42
f 42 	16 	15
f 17 	23 	18
f 18 	23 	24
f 18 	24 	19
f 19 	24 	25
f 28 	22 	27
f 27 	22 	21
f 29 	44 	28
f 28 	44 	22
f 30 	45 	29
f 29 	45 	44
f 35 	6 	9
f 9 	36 	37
f 37 	35 	9
f 35 	8 	6
f 3 	7 	2
f 2 	39 	3
f 31 	46 	30
f 30 	46 	45
f 32 	47 	31
f 31 	47 	46
f 47 	32 	48
f 48 	32 	33
f 48 	33 	49
f 49 	33 	34
f 23 	17 	49
f 49 	34 	23
f 50 	36 	9
f 9 	10 	50
f 50 	1 	4
f 4 	36 	50
# 96 faces

 #end of obj_0

