# Object Export From Tinkercad Server 2015

mtllib obj.mtl

o obj_0
v 0.8662 		9.5 		60.003
v 0.754 		9.5 		60.591
v -30.365 		9.5 		89.553
v -26.866 		9.5 		90.003
v -23.367 		7.5 		89.553
v -19.928 		7.5 		88.214
v -23.367 		9.5 		89.553
v -16.607 		7.5 		86.006
v -45.822 		7.5 		74.625
v -43.186 		7.5 		79.153
v -52.048 		7.5 		66.75
v -30.351 		9.5 		92.551
v -26.5 		9.5 		93
v -22.649 		9.5 		92.551
v -13.462 		7.5 		82.969
v -18.865 		9.5 		91.211
v -3.096 		9.5 		72.46
v -10.547 		7.5 		79.153
v -19.928 		9.5 		88.214
v -3.096 		7.5 		72.46
v -50.082 		9.5 		63.751
v -51.0258 		9.5 		60.003
v -16.607 		9.5 		86.006
v -7.91 		7.5 		74.625
v -40.27 		7.5 		82.969
v -15.211 		7.5 		89.004
v -49.904 		7.5 		72.46
v -48.134 		9.5 		69.461
v -8.542 		9.5 		82.151
v -53.8662 		9.5 		60.003
v -13.462 		9.5 		82.969
v -8.542 		7.5 		82.151
v -53.8662 		7.5 		60.003
v -10.547 		9.5 		79.153
v -5.598 		7.5 		69.461
v -11.75 		7.5 		85.966
v -50.082 		7.5 		63.751
v -37.125 		7.5 		86.006
v -5.64 		9.5 		77.623
v -51.0258 		7.5 		60.003
v -47.36 		7.5 		77.623
v -7.91 		9.5 		74.625
v -45.822 		9.5 		74.625
v -5.64 		7.5 		77.623
v -15.211 		9.5 		89.004
v -3.65 		7.5 		63.751
v -48.134 		7.5 		69.461
v -33.805 		7.5 		88.214
v -44.458 		7.5 		82.151
v -5.598 		9.5 		69.461
v -43.186 		9.5 		79.153
v -11.75 		9.5 		85.966
v -52.048 		9.5 		66.75
v -2.7062 		7.5 		60.003
v -40.27 		9.5 		82.969
v -3.65 		9.5 		63.751
v -37.789 		7.5 		89.004
v -41.25 		7.5 		85.966
v -49.904 		9.5 		72.46
v -37.125 		9.5 		86.006
v -2.7062 		9.5 		60.003
v -34.135 		7.5 		91.211
v -47.36 		9.5 		77.623
v -33.805 		9.5 		88.214
v -44.458 		9.5 		82.151
v -0.952 		7.5 		66.75
v -53.754 		7.5 		60.591
v -18.865 		7.5 		91.211
v 0.754 		7.5 		60.591
v 0.8662 		7.5 		60.003
v -26.5 		7.5 		93
v -30.351 		7.5 		92.551
v -26.866 		7.5 		90.003
v -41.25 		9.5 		85.966
v -22.649 		7.5 		92.551
v -37.789 		9.5 		89.004
v -0.952 		9.5 		66.75
v -34.135 		9.5 		91.211
v -53.754 		9.5 		60.591
v -30.365 		7.5 		89.553
# 80 vertices

g group_0_11107152

usemtl color_11107152
s 0

f 10 	41 	9
f 15 	36 	8
f 16 	45 	19
f 4 	3 	12
f 7 	4 	13
f 14 	7 	13
f 16 	7 	14
f 18 	32 	15
f 6 	8 	26
f 16 	19 	7
f 12 	13 	4
f 24 	44 	18
f 58 	49 	25
f 47 	9 	27
f 11 	47 	27
f 30 	79 	22
f 23 	52 	31
f 35 	20 	24
f 26 	8 	36
f 38 	58 	25
f 21 	37 	40
f 21 	40 	22
f 39 	29 	32
f 39 	32 	44
f 52 	29 	31
f 23 	19 	45
f 52 	23 	45
f 22 	79 	21
f 28 	21 	53
f 46 	66 	35
f 36 	15 	32
f 28 	47 	37
f 28 	37 	21
f 48 	57 	38
f 10 	25 	49
f 41 	10 	49
f 29 	39 	34
f 34 	31 	29
f 53 	59 	28
f 43 	28 	59
f 36 	29 	52
f 54 	69 	46
f 32 	18 	44
f 43 	9 	47
f 43 	47 	28
f 36 	32 	29
f 39 	17 	42
f 42 	34 	39
f 51 	10 	9
f 51 	9 	43
f 59 	63 	43
f 51 	43 	63
f 58 	38 	57
f 26 	52 	45
f 44 	24 	20
f 55 	25 	10
f 55 	10 	51
f 17 	77 	50
f 50 	42 	17
f 26 	36 	52
f 63 	65 	51
f 55 	51 	65
f 57 	48 	62
f 60 	38 	25
f 60 	25 	55
f 56 	50 	77
f 45 	16 	26
f 20 	35 	66
f 65 	74 	55
f 60 	55 	74
f 64 	48 	38
f 64 	38 	60
f 2 	69 	70
f 2 	70 	1
f 77 	2 	56
f 26 	16 	68
f 62 	80 	72
f 80 	73 	72
f 71 	73 	5
f 6 	68 	5
f 26 	68 	6
f 68 	75 	5
f 71 	5 	75
f 16 	14 	75
f 16 	75 	68
f 1 	61 	2
f 61 	56 	2
f 70 	69 	54
f 66 	46 	69
f 74 	76 	60
f 64 	60 	76
f 76 	78 	64
f 64 	78 	3
f 14 	13 	71
f 14 	71 	75
f 76 	74 	58
f 76 	58 	57
f 13 	12 	72
f 13 	72 	71
f 12 	3 	78
f 69 	2 	66
f 77 	66 	2
f 58 	65 	49
f 47 	11 	37
f 11 	67 	37
f 74 	65 	58
f 53 	21 	79
f 41 	65 	63
f 41 	27 	9
f 37 	67 	40
f 33 	40 	67
f 77 	17 	20
f 77 	20 	66
f 41 	49 	65
f 41 	59 	27
f 20 	17 	39
f 20 	39 	44
f 71 	72 	73
f 80 	62 	48
f 1 	70 	61
f 63 	59 	41
f 11 	59 	53
f 11 	27 	59
f 11 	53 	79
f 11 	79 	67
f 79 	30 	33
f 79 	33 	67
f 33 	22 	40
f 22 	33 	30
f 54 	61 	70
f 48 	64 	80
f 3 	80 	64
f 4 	73 	80
f 4 	80 	3
f 7 	5 	73
f 7 	73 	4
f 19 	6 	5
f 19 	5 	7
f 23 	8 	6
f 23 	6 	19
f 31 	15 	8
f 31 	8 	23
f 34 	18 	15
f 34 	15 	31
f 42 	24 	18
f 42 	18 	34
f 50 	35 	24
f 50 	24 	42
f 56 	46 	35
f 56 	35 	50
f 54 	46 	56
f 54 	56 	61
f 12 	78 	62
f 12 	62 	72
f 57 	62 	76
f 78 	76 	62
# 156 faces

 #end of obj_0

o obj_1
v -54 		6.5 		0
v -54 		6.5 		60
v -54 		10.5 		0
v -54 		10.5 		60
v -50 		6.5 		60
v -50 		6.5 		0
v -50 		10.5 		60
v -50 		10.5 		0
# 8 vertices

g group_1_6306067

usemtl color_6306067
s 0

f 83 	81 	82
f 84 	83 	82
f 87 	85 	86
f 88 	87 	86
f 86 	85 	82
f 81 	86 	82
f 87 	88 	83
f 84 	87 	83
f 88 	86 	81
f 83 	88 	81
f 84 	82 	85
f 87 	84 	85
# 12 faces

 #end of obj_1

o obj_2
v -3 		6.5 		0
v -3 		6.5 		60
v -3 		10.5 		0
v -3 		10.5 		60
v 1 		6.5 		60
v 1 		6.5 		0
v 1 		10.5 		60
v 1 		10.5 		0
# 8 vertices

g group_2_6306067

usemtl color_6306067
s 0

f 91 	89 	90
f 92 	91 	90
f 95 	93 	94
f 96 	95 	94
f 94 	93 	90
f 89 	94 	90
f 95 	96 	91
f 92 	95 	91
f 96 	94 	89
f 91 	96 	89
f 92 	90 	93
f 95 	92 	93
# 12 faces

 #end of obj_2

