# Object Export From Tinkercad Server 2015

mtllib obj.mtl

o obj_0
v -30.998 		-0.003 		21
v -30.998 		-0.003 		0
v -62.003 		-0.003 		0
v -62.003 		-0.003 		21
v -62.003 		48.003 		0
v -62.003 		48.003 		21
v -30.998 		48.003 		21
v -30.998 		48.003 		0
v -26 		-6 		21
v -26 		-6 		0
v -26 		53 		0
v -26 		53 		21
v -67 		53 		21
v -67 		53 		0
v -67 		-6 		0
v -67 		-6 		21
# 16 vertices

g group_0_12568524

usemtl color_12568524
s 0

f 1 	2 	3
f 1 	3 	4
f 5 	6 	4
f 5 	4 	3
f 2 	1 	7
f 2 	7 	8
f 9 	10 	11
f 9 	11 	12
f 13 	14 	15
f 13 	15 	16
f 6 	7 	13
f 16 	1 	4
f 6 	13 	4
f 13 	16 	4
f 15 	14 	3
f 5 	3 	14
f 8 	11 	2
f 10 	2 	11
f 16 	15 	10
f 16 	10 	9
f 13 	12 	14
f 11 	14 	12
f 6 	5 	8
f 6 	8 	7
f 12 	13 	7
f 12 	7 	1
f 16 	9 	1
f 12 	1 	9
f 5 	14 	8
f 11 	8 	14
f 10 	15 	2
f 3 	2 	15
# 32 faces

 #end of obj_0

