# Object Export From Tinkercad Server 2015

mtllib obj.mtl

o obj_0
v 15 		62 		19
v 15 		62 		-5
v 15 		70 		-5
v 15 		70 		19
v -56 		70 		19
v -56 		70 		-3.8571
v -56 		-28 		-3.8571
v -56 		-28 		19
v -44.062 		23.942 		19
v -44.08 		30.356 		19
v -32.586 		-24.862 		19
v -32.586 		-24.862 		-3.8571
v -35.265 		-18.321 		-3.8571
v -32 		70 		-3.8571
v -35.265 		-18.321 		19
v -43.659 		36.281 		19
v -42.806 		41.617 		19
v -37.655 		-11.435 		19
v -37.655 		-11.435 		-3.8571
v -41.536 		46.271 		19
v -39.717 		-4.322 		19
v -44.062 		23.942 		-3.8571
v -39.87 		50.164 		19
v -39.717 		-4.322 		-3.8571
v -44.08 		30.356 		-3.8571
v -37.838 		53.229 		19
v -31.0799 		-28 		19
v -31.0799 		-28 		-3.8571
v -36.7465 		54.2374 		19
v -41.414 		2.894 		-3.8571
v -29.063 		62 		-3.8571
v -42.717 		10.092 		-3.8571
v -29.063 		62 		19
v -43.605 		17.148 		-3.8571
v -32 		62 		-3.8571
v -32 		62 		-5
v -43.659 		36.281 		-3.8571
v -32 		70 		-5
v -41.414 		2.894 		19
v -42.806 		41.617 		-3.8571
v -42.717 		10.092 		19
v -43.605 		17.148 		19
v -41.536 		46.271 		-3.8571
v -39.87 		50.164 		-3.8571
v -37.838 		53.229 		-3.8571
v -36.7465 		54.2374 		-3.8571
# 46 vertices

g group_0_4634441

usemtl color_4634441
s 0

f 1 	2 	3
f 1 	3 	4
f 5 	6 	7
f 5 	7 	8
f 10 	5 	9
f 5 	14 	6
f 15 	8 	11
f 18 	8 	15
f 13 	12 	7
f 20 	5 	17
f 9 	22 	25
f 9 	25 	10
f 19 	13 	7
f 28 	11 	27
f 25 	16 	10
f 24 	19 	7
f 22 	34 	7
f 30 	24 	7
f 31 	33 	46
f 32 	30 	7
f 34 	32 	7
f 35 	36 	31
f 2 	31 	36
f 31 	2 	1
f 33 	31 	1
f 38 	14 	3
f 4 	3 	14
f 4 	14 	5
f 12 	11 	28
f 13 	15 	11
f 13 	11 	12
f 19 	18 	15
f 19 	15 	13
f 18 	21 	8
f 42 	9 	8
f 24 	21 	18
f 24 	18 	19
f 37 	16 	25
f 30 	39 	21
f 30 	21 	24
f 16 	5 	10
f 16 	17 	5
f 23 	5 	20
f 26 	5 	23
f 26 	29 	5
f 29 	33 	5
f 8 	9 	5
f 32 	41 	39
f 32 	39 	30
f 40 	17 	16
f 40 	16 	37
f 34 	42 	41
f 34 	41 	32
f 43 	20 	17
f 43 	17 	40
f 22 	9 	42
f 22 	42 	34
f 44 	23 	20
f 44 	20 	43
f 14 	38 	36
f 14 	36 	35
f 45 	26 	23
f 45 	23 	44
f 46 	29 	26
f 46 	26 	45
f 11 	8 	27
f 46 	33 	29
f 41 	8 	39
f 21 	39 	8
f 1 	4 	33
f 5 	33 	4
f 42 	8 	41
f 36 	38 	2
f 2 	38 	3
f 12 	28 	7
f 31 	46 	35
f 45 	44 	6
f 43 	6 	44
f 46 	45 	6
f 8 	28 	27
f 14 	35 	6
f 46 	6 	35
f 43 	40 	6
f 37 	6 	40
f 37 	25 	6
f 7 	6 	22
f 25 	22 	6
f 7 	28 	8
# 88 faces

 #end of obj_0

