# Object Export From Tinkercad Server 2015

mtllib obj.mtl

o obj_0
v -10 		-39.2488 		21
v -10 		-39.2488 		0
v -10 		47.7684 		0
v -10 		47.7684 		21
v -51 		64.7514 		21
v -51 		64.7514 		0
v -51 		-56.2314 		0
v -51 		-56.2314 		21
v -46.003 		58.0024 		21
v -14.998 		43.122 		21
v -14.998 		-33.1223 		21
v -46.003 		-48.0028 		21
v -46.003 		-48.0028 		0
v -14.998 		-33.1223 		0
v -14.998 		43.122 		0
v -46.003 		58.0024 		0
# 16 vertices

g group_0_12568524

usemtl color_12568524
s 0

f 1 	2 	3
f 1 	3 	4
f 5 	6 	7
f 5 	7 	8
f 9 	10 	4
f 12 	1 	11
f 4 	10 	11
f 4 	11 	1
f 8 	1 	12
f 9 	5 	12
f 4 	5 	9
f 8 	12 	5
f 14 	2 	13
f 4 	6 	5
f 6 	3 	16
f 15 	16 	3
f 9 	16 	15
f 9 	15 	10
f 8 	2 	1
f 7 	6 	13
f 2 	7 	13
f 16 	13 	6
f 2 	8 	7
f 16 	9 	12
f 16 	12 	13
f 15 	3 	14
f 2 	14 	3
f 4 	3 	6
f 14 	11 	10
f 14 	10 	15
f 13 	12 	11
f 13 	11 	14
# 32 faces

 #end of obj_0

