# File generated by FabConvert.com - Free Image and 3D model conversion tools

mtllib Quadra+de+Futsal.mtl

o obj1
v 1092.17114258 598.95611572 0
v 1063.17675781 599.59649658 0
v 1063.17675781 602.77325439 0
v 1066.32629395 599.18182373 0
v 1091.34887695 595.88757324 0
v 1119.06860352 584.40563965 0
v 1120.65710449 587.15686035 0
v 1142.87219238 566.14056396 0
v 1145.11853027 568.38690186 0
v 1157.50158691 547.07507324 0
v 1161.47155762 547.07507324 0
v 1161.13720703 542.33709717 0
v 1172.61914062 514.61730957 0
v 1163.88842773 543.92547607 0
v 1175.68762207 515.4395752 0
v 1176.53540039 484.87036133 0
v 1179.7121582 484.87036133 0
v 1066.32629395 370.55889893 0
v 1063.17675781 366.96746826 0
v 1063.17675781 370.14425659 0
v 1092.17114258 370.78463745 0
v 1091.34887695 373.85317993 0
v 1119.06860352 385.33508301 0
v 1120.65710449 382.58389282 0
v 1142.87219238 403.60015869 0
v 1145.11853027 401.3538208 0
v 1157.50158691 422.66564941 0
v 1161.47155762 422.66564941 0
v 1161.13720703 427.40365601 0
v 1172.61914062 455.12341309 0
v 1163.88842773 425.81524658 0
v 1175.68762207 454.30117798 0
usemtl mat0
f 1 2 3
f 2 1 4
f 4 1 5
f 5 1 6
f 6 1 7
f 6 7 8
f 8 7 9
f 8 9 10
f 10 9 11
f 10 11 12
f 12 11 13
f 13 11 14
f 13 14 15
f 13 15 16
f 16 15 17
f 18 19 20
f 19 18 21
f 21 18 22
f 21 22 23
f 21 23 24
f 24 23 25
f 24 25 26
f 26 25 27
f 26 27 28
f 28 27 29
f 28 29 30
f 28 30 31
f 31 30 32
f 32 30 16
f 32 16 17
# Vertices: 32, normals: 0, texture coordinates: 0, faces: 30

o obj2
v 950.5847168 514.61730957 0
v 950.5847168 455.12341309 0
v 946.66845703 484.87036133 0
v 962.06665039 542.33709717 0
v 962.06665039 427.40365601 0
v 965.70220947 547.07507324 0
v 965.70220947 422.66564941 0
v 980.33172607 566.14056396 0
v 980.33172607 403.60015869 0
v 1004.13519287 584.40563965 0
v 1004.13519287 385.33508301 0
v 1031.85498047 595.88757324 0
v 1031.85498047 373.85317993 0
v 1056.87756348 599.18182373 0
v 1056.87756348 370.55889893 0
v 1057.66491699 484.87036133 0
v 1060.02709961 599.59649658 0
v 1057.79907227 485.88934326 0
v 1058.19238281 486.83886719 0
v 1058.81799316 487.65426636 0
v 1059.63342285 488.27990723 0
v 1060.02709961 488.44299316 0
v 1060.02709961 370.14425659 0
v 1057.79907227 483.85140991 0
v 1058.19238281 482.90185547 0
v 1058.81799316 482.08648682 0
v 1059.63342285 481.46081543 0
v 1060.02709961 481.29772949 0
usemtl mat0
f 33 34 35
f 34 33 36
f 34 36 37
f 37 36 38
f 37 38 39
f 39 38 40
f 39 40 41
f 41 40 42
f 41 42 43
f 43 42 44
f 43 44 45
f 45 44 46
f 45 46 47
f 47 46 48
f 48 46 49
f 48 49 50
f 50 49 51
f 51 49 52
f 52 49 53
f 53 49 54
f 48 55 47
f 55 48 56
f 55 56 57
f 55 57 58
f 55 58 59
f 55 59 60
# Vertices: 28, normals: 0, texture coordinates: 0, faces: 26

o obj3
v 1066.32629395 599.18182373 0
v 1063.17675781 488.44299316 0
v 1063.17675781 599.59649658 0
v 1063.57043457 488.27990723 0
v 1064.38586426 487.65426636 0
v 1065.01147461 486.83886719 0
v 1065.40478516 485.88934326 0
v 1065.53894043 484.87036133 0
v 1063.57043457 481.46081543 0
v 1063.17675781 370.14425659 0
v 1063.17675781 481.29772949 0
v 1066.32629395 370.55889893 0
v 1064.38586426 482.08648682 0
v 1065.01147461 482.90185547 0
v 1065.40478516 483.85140991 0
v 1091.34887695 595.88757324 0
v 1091.34887695 373.85317993 0
v 1119.06860352 584.40563965 0
v 1119.06860352 385.33508301 0
v 1142.87219238 566.14056396 0
v 1142.87219238 403.60015869 0
v 1157.50158691 547.07507324 0
v 1157.50158691 422.66564941 0
v 1161.13720703 542.33709717 0
v 1161.13720703 427.40365601 0
v 1172.61914062 514.61730957 0
v 1172.61914062 455.12341309 0
v 1176.53540039 484.87036133 0
usemtl mat0
f 61 62 63
f 62 61 64
f 64 61 65
f 65 61 66
f 66 61 67
f 67 61 68
f 69 70 71
f 70 69 72
f 72 69 73
f 72 73 74
f 72 74 75
f 72 75 68
f 72 68 61
f 72 61 76
f 72 76 77
f 77 76 78
f 77 78 79
f 79 78 80
f 79 80 81
f 81 80 82
f 81 82 83
f 83 82 84
f 83 84 85
f 85 84 86
f 85 86 87
f 87 86 88
# Vertices: 28, normals: 0, texture coordinates: 0, faces: 26

o obj4
v 947.51617432 515.4395752 0
v 946.66845703 484.87036133 0
v 943.49169922 484.87036133 0
v 950.5847168 514.61730957 0
v 959.31549072 543.92547607 0
v 962.06665039 542.33709717 0
v 961.73223877 547.07507324 0
v 978.08538818 568.38690186 0
v 965.70220947 547.07507324 0
v 980.33172607 566.14056396 0
v 1002.54681396 587.15686035 0
v 1004.13519287 584.40563965 0
v 1031.03271484 598.95611572 0
v 1031.85498047 595.88757324 0
v 1060.02709961 602.77325439 0
v 1056.87756348 599.18182373 0
v 1060.02709961 599.59649658 0
v 947.51617432 454.30117798 0
v 950.5847168 455.12341309 0
v 959.31549072 425.81524658 0
v 962.06665039 427.40365601 0
v 961.73223877 422.66564941 0
v 978.08538818 401.3538208 0
v 965.70220947 422.66564941 0
v 980.33172607 403.60015869 0
v 1002.54681396 382.58389282 0
v 1004.13519287 385.33508301 0
v 1031.03271484 370.78463745 0
v 1031.85498047 373.85317993 0
v 1060.02709961 366.96746826 0
v 1056.87756348 370.55889893 0
v 1060.02709961 370.14425659 0
usemtl mat0
f 89 90 91
f 90 89 92
f 92 89 93
f 92 93 94
f 94 93 95
f 94 95 96
f 94 96 97
f 97 96 98
f 98 96 99
f 98 99 100
f 100 99 101
f 100 101 102
f 102 101 103
f 102 103 104
f 104 103 105
f 90 106 91
f 106 90 107
f 106 107 108
f 108 107 109
f 108 109 110
f 110 109 111
f 111 109 112
f 111 112 113
f 111 113 114
f 114 113 115
f 114 115 116
f 116 115 117
f 116 117 118
f 118 117 119
f 118 119 120
# Vertices: 32, normals: 0, texture coordinates: 0, faces: 30

o obj5
v 1451.49987793 485.88934326 0
v 1451.49987793 483.85140991 0
v 1451.36572266 484.87036133 0
v 1451.89318848 486.83886719 0
v 1451.89318848 482.90185547 0
v 1452.51879883 487.65426636 0
v 1452.51879883 482.08648682 0
v 1453.33422852 488.27990723 0
v 1453.33422852 481.46081543 0
v 1454.28369141 488.67321777 0
v 1454.28369141 481.06750488 0
v 1455.30273438 488.80737305 0
v 1455.30273438 480.93334961 0
v 1456.32165527 488.67321777 0
v 1456.32165527 481.06750488 0
v 1457.27124023 488.27990723 0
v 1457.27124023 481.46081543 0
v 1458.08654785 487.65426636 0
v 1458.08654785 482.08648682 0
v 1458.71228027 486.83886719 0
v 1458.71228027 482.90185547 0
v 1459.10559082 485.88934326 0
v 1459.10559082 483.85140991 0
v 1459.23974609 484.87036133 0
usemtl mat0
f 121 122 123
f 122 121 124
f 122 124 125
f 125 124 126
f 125 126 127
f 127 126 128
f 127 128 129
f 129 128 130
f 129 130 131
f 131 130 132
f 131 132 133
f 133 132 134
f 133 134 135
f 135 134 136
f 135 136 137
f 137 136 138
f 137 138 139
f 139 138 140
f 139 140 141
f 141 140 142
f 141 142 143
f 143 142 144
# Vertices: 24, normals: 0, texture coordinates: 0, faces: 22

o obj6
v 667.24786377 485.88934326 0
v 667.24786377 483.85140991 0
v 667.11376953 484.87036133 0
v 667.64117432 486.83886719 0
v 667.64117432 482.90185547 0
v 668.2668457 487.65426636 0
v 668.2668457 482.08648682 0
v 669.08227539 488.27990723 0
v 669.08227539 481.46081543 0
v 670.03179932 488.67321777 0
v 670.03179932 481.06750488 0
v 671.05072021 488.80737305 0
v 671.05072021 480.93334961 0
v 672.06970215 488.67321777 0
v 672.06970215 481.06750488 0
v 673.01922607 488.27990723 0
v 673.01922607 481.46081543 0
v 673.83465576 487.65426636 0
v 673.83465576 482.08648682 0
v 674.46032715 486.83886719 0
v 674.46032715 482.90185547 0
v 674.8536377 485.88934326 0
v 674.8536377 483.85140991 0
v 674.98773193 484.87036133 0
usemtl mat0
f 145 146 147
f 146 145 148
f 146 148 149
f 149 148 150
f 149 150 151
f 151 150 152
f 151 152 153
f 153 152 154
f 153 154 155
f 155 154 156
f 155 156 157
f 157 156 158
f 157 158 159
f 159 158 160
f 159 160 161
f 161 160 162
f 161 162 163
f 163 162 164
f 163 164 165
f 165 164 166
f 165 166 167
f 167 166 168
# Vertices: 24, normals: 0, texture coordinates: 0, faces: 22

o obj7
v 278.63467407 865.66320801 0
v 277.34997559 779.63000488 0
v 277.34997559 865.57904053 0
v 303.89221191 775.2822876 0
v 279.8973999 865.91442871 0
v 281.11654663 866.32824707 0
v 282.27120972 866.89770508 0
v 283.34170532 867.61297607 0
v 284.30966187 868.46185303 0
v 285.15856934 869.42980957 0
v 285.87384033 870.50030518 0
v 286.44326782 871.65496826 0
v 286.8571167 872.87414551 0
v 287.10827637 874.13684082 0
v 287.19247437 875.42156982 0
v 1060.02709961 875.42156982 0
v 332.84399414 767.09344482 0
v 360.68457031 755.68450928 0
v 387.05709839 741.20172119 0
v 411.62350464 723.83062744 0
v 434.06887817 703.79400635 0
v 454.10549927 681.34863281 0
v 471.4765625 656.78222656 0
v 485.95941162 630.409729 0
v 497.36831665 602.5690918 0
v 505.55712891 573.61737061 0
v 509.90490723 547.07507324 0
v 510.4208374 543.92547607 0
v 510.4208374 488.80737305 0
v 511.43978882 488.67321777 0
v 512.38934326 488.27990723 0
v 513.20471191 487.65426636 0
v 513.8303833 486.83886719 0
v 514.22369385 485.88934326 0
v 514.35784912 484.87036133 0
v 668.2668457 487.65426636 0
v 667.64117432 486.83886719 0
v 667.24786377 485.88934326 0
v 667.11376953 484.87036133 0
v 661.60192871 110.06721497 0
v 664.75152588 110.06721497 0
v 664.75152588 94.31918335 0
v 669.08227539 488.27990723 0
v 670.03179932 488.67321777 0
v 671.05072021 488.80737305 0
v 672.06970215 488.67321777 0
v 673.01922607 488.27990723 0
v 673.83465576 487.65426636 0
v 674.46032715 486.83886719 0
v 674.8536377 485.88934326 0
v 674.98773193 484.87036133 0
v 947.51617432 515.4395752 0
v 861.60192871 110.06721497 0
v 864.75152588 110.06721497 0
v 864.75152588 94.31918335 0
v 943.49169922 484.87036133 0
v 959.31549072 543.92547607 0
v 961.73223877 547.07507324 0
v 978.08538818 568.38690186 0
v 1002.54681396 587.15686035 0
v 1031.03271484 598.95611572 0
v 1060.02709961 602.77325439 0
v 947.51617432 454.30117798 0
v 1060.02709961 94.31918335 0
v 959.31549072 425.81524658 0
v 961.73223877 422.66564941 0
v 978.08538818 401.3538208 0
v 1002.54681396 382.58389282 0
v 1031.03271484 370.78463745 0
v 1060.02709961 366.96746826 0
v 667.64117432 482.90185547 0
v 861.60192871 94.31918335 0
v 667.24786377 483.85140991 0
v 668.2668457 482.08648682 0
v 669.08227539 481.46081543 0
v 670.03179932 481.06750488 0
v 671.05072021 480.93334961 0
v 672.06970215 481.06750488 0
v 673.01922607 481.46081543 0
v 673.83465576 482.08648682 0
v 674.46032715 482.90185547 0
v 674.8536377 483.85140991 0
v 511.43978882 481.06750488 0
v 510.4208374 425.81524658 0
v 510.4208374 480.93334961 0
v 303.64459229 200.25398254 0
v 277.34997559 104.16170502 0
v 277.34997559 196.53616333 0
v 278.63467407 104.07749939 0
v 279.8973999 103.82633209 0
v 281.11654663 103.41249084 0
v 282.27120972 102.84305573 0
v 283.34170532 102.12778473 0
v 284.30966187 101.27890015 0
v 285.15856934 100.31093597 0
v 285.87384033 99.240448 0
v 286.44326782 98.08575439 0
v 286.8571167 96.8666153 0
v 287.10827637 95.60388947 0
v 287.19247437 94.31918335 0
v 661.60192871 94.31918335 0
v 332.41870117 207.76039124 0
v 360.14437866 218.51138306 0
v 386.45703125 232.36560059 0
v 411.01074219 249.1408844 0
v 433.48269653 268.61669922 0
v 453.57739258 290.53695679 0
v 471.03067017 314.61346436 0
v 485.61306763 340.5296936 0
v 497.1328125 367.94485474 0
v 505.43847656 396.49850464 0
v 509.88555908 422.66564941 0
v 512.38934326 481.46081543 0
v 513.20471191 482.08648682 0
v 513.8303833 482.90185547 0
v 514.22369385 483.85140991 0
usemtl mat0
f 169 170 171
f 170 169 172
f 172 169 173
f 172 173 174
f 172 174 175
f 172 175 176
f 172 176 177
f 172 177 178
f 172 178 179
f 172 179 180
f 172 180 181
f 172 181 182
f 172 182 183
f 172 183 184
f 172 184 185
f 185 184 186
f 186 184 187
f 187 184 188
f 188 184 189
f 189 184 190
f 190 184 191
f 191 184 192
f 192 184 193
f 193 184 194
f 194 184 195
f 195 184 196
f 196 184 197
f 197 184 198
f 198 184 199
f 199 184 200
f 200 184 201
f 201 184 202
f 202 184 203
f 203 184 204
f 203 204 205
f 203 205 206
f 203 206 207
f 203 207 208
f 208 207 209
f 209 207 210
f 204 184 211
f 211 184 212
f 212 184 213
f 213 184 214
f 214 184 215
f 215 184 216
f 216 184 217
f 217 184 218
f 218 184 219
f 219 184 220
f 219 220 221
f 221 220 222
f 222 220 223
f 223 220 224
f 220 184 225
f 225 184 226
f 226 184 227
f 227 184 228
f 228 184 229
f 229 184 230
f 223 231 232
f 231 223 224
f 232 231 233
f 232 233 234
f 232 234 235
f 232 235 236
f 232 236 237
f 232 237 238
f 210 239 240
f 239 210 241
f 241 210 207
f 240 239 242
f 240 242 243
f 240 243 244
f 240 244 245
f 240 245 246
f 240 246 247
f 240 247 248
f 240 248 249
f 240 249 250
f 240 250 219
f 240 219 221
f 251 252 253
f 254 255 256
f 255 254 257
f 257 254 258
f 258 254 259
f 259 254 260
f 260 254 261
f 261 254 262
f 262 254 263
f 263 254 264
f 264 254 265
f 265 254 266
f 266 254 267
f 267 254 268
f 268 254 269
f 269 254 270
f 269 270 271
f 269 271 272
f 269 272 273
f 269 273 274
f 269 274 275
f 269 275 276
f 269 276 277
f 269 277 278
f 269 278 279
f 269 279 280
f 269 280 252
f 269 252 251
f 269 251 281
f 269 281 282
f 269 282 283
f 269 283 284
f 269 284 203
f 269 203 208
# Vertices: 116, normals: 0, texture coordinates: 0, faces: 116

o obj8
v 506.71331787 547.07507324 0
v 506.48382568 484.87036133 0
v 502.47781372 572.9319458 0
v 506.61798096 485.88934326 0
v 507.0112915 486.83886719 0
v 507.27120972 543.66925049 0
v 507.27120972 487.17764282 0
v 280.49957275 775.92254639 0
v 277.34997559 199.71710205 0
v 277.34997559 776.43847656 0
v 280.49957275 200.16241455 0
v 303.20684814 772.20294189 0
v 303.02456665 203.34724426 0
v 331.44866943 210.76234436 0
v 331.81494141 764.11132812 0
v 358.83703613 221.3825531 0
v 359.32501221 752.83782959 0
v 384.82962036 235.0682373 0
v 385.38449097 738.52697754 0
v 409.08465576 251.63946533 0
v 409.65924072 721.36212158 0
v 431.28323364 270.87835693 0
v 431.8381958 701.56329346 0
v 451.13348389 292.53198242 0
v 451.63696289 679.38439941 0
v 468.37445068 316.31561279 0
v 468.80181885 655.10961914 0
v 482.77944946 341.91653442 0
v 483.11273193 629.0501709 0
v 494.15905762 368.99819946 0
v 494.38623047 601.54003906 0
v 502.36367798 397.20452881 0
v 506.6907959 422.66564941 0
v 506.61798096 483.85140991 0
v 507.0112915 482.90185547 0
v 507.27120972 426.08099365 0
v 507.27120972 482.56311035 0
usemtl mat0
f 285 286 287
f 286 285 288
f 288 285 289
f 289 285 290
f 289 290 291
f 292 293 294
f 293 292 295
f 295 292 296
f 295 296 297
f 297 296 298
f 298 296 299
f 298 299 300
f 300 299 301
f 300 301 302
f 302 301 303
f 302 303 304
f 304 303 305
f 304 305 306
f 306 305 307
f 306 307 308
f 308 307 309
f 308 309 310
f 310 309 311
f 310 311 312
f 312 311 313
f 312 313 314
f 314 313 315
f 314 315 316
f 316 315 287
f 316 287 317
f 317 287 286
f 317 286 318
f 317 318 319
f 317 319 320
f 320 319 321
# Vertices: 37, normals: 0, texture coordinates: 0, faces: 35

o obj9
v 1616.49047852 547.07507324 0
v 1615.93261719 487.17764282 0
v 1615.93261719 543.66925049 0
v 1616.19262695 486.83886719 0
v 1616.5859375 485.88934326 0
v 1620.72607422 572.9319458 0
v 1616.72009277 484.87036133 0
v 1620.72607422 396.80877686 0
v 1628.81762695 368.20068359 0
v 1628.81762695 601.54003906 0
v 1640.09118652 629.0501709 0
v 1640.09118652 340.69058228 0
v 1654.40197754 655.10961914 0
v 1654.40197754 314.63113403 0
v 1671.56689453 679.38439941 0
v 1671.56689453 290.35635376 0
v 1691.36572266 701.56329346 0
v 1691.36572266 268.1774292 0
v 1713.54455566 721.36212158 0
v 1713.54455566 248.37863159 0
v 1737.81933594 738.52697754 0
v 1737.81933594 231.21377563 0
v 1763.87878418 752.83782959 0
v 1763.87878418 216.90287781 0
v 1791.38891602 764.11132812 0
v 1791.38891602 205.62937927 0
v 1819.99707031 772.20294189 0
v 1819.99707031 197.53779602 0
v 1842.7043457 775.92254639 0
v 1842.7043457 193.81820679 0
v 1845.85388184 776.43847656 0
v 1845.85388184 193.30227661 0
v 1845.85388184 547.07507324 0
v 1845.85388184 543.92547607 0
v 1845.85388184 425.81524658 0
v 1845.85388184 422.66564941 0
v 1616.19262695 482.90185547 0
v 1615.93261719 426.07150269 0
v 1615.93261719 482.56311035 0
v 1616.49047852 422.66564941 0
v 1616.5859375 483.85140991 0
usemtl mat0
f 322 323 324
f 323 322 325
f 325 322 326
f 326 322 327
f 326 327 328
f 328 327 329
f 329 327 330
f 330 327 331
f 330 331 332
f 330 332 333
f 333 332 334
f 333 334 335
f 335 334 336
f 335 336 337
f 337 336 338
f 337 338 339
f 339 338 340
f 339 340 341
f 341 340 342
f 341 342 343
f 343 342 344
f 343 344 345
f 345 344 346
f 345 346 347
f 347 346 348
f 347 348 349
f 349 348 350
f 349 350 351
f 351 350 352
f 351 352 353
f 353 352 354
f 353 354 355
f 353 355 356
f 353 356 357
f 358 359 360
f 359 358 361
f 361 358 362
f 361 362 329
f 329 362 328
# Vertices: 41, normals: 0, texture coordinates: 0, faces: 39

o obj10
v 274.2003479 425.81524658 0
v 258.45233154 289.5947876 0
v 244.27909851 425.81524658 0
v 274.2003479 289.5947876 0
v 274.2003479 422.66564941 0
v 861.60192871 91.16957855 0
v 664.75152588 75.42154694 0
v 664.75152588 91.16957855 0
v 1061.60192871 91.16957855 0
v 864.75152588 75.42154694 0
v 864.75152588 91.16957855 0
v 1458.45227051 91.16957855 0
v 1261.60192871 75.42154694 0
v 1261.60192871 91.16957855 0
v 1849.00354004 91.16957855 0
v 1461.60192871 75.42154694 0
v 1461.60192871 91.16957855 0
v 1864.75158691 286.44515991 0
v 1849.00354004 286.44515991 0
v 1877.34997559 422.66564941 0
v 1849.00354004 289.5947876 0
v 1849.00354004 422.66564941 0
v 1864.75158691 289.5947876 0
v 195.46020508 957.31134033 0
v 274.2003479 878.57116699 0
v 195.46020508 12.42942238 0
v 1927.74365234 957.31134033 0
v 244.27909851 543.92547607 0
v 258.45233154 683.29559326 0
v 1849.00354004 878.57116699 0
v 1849.00354004 683.29559326 0
v 1864.75158691 683.29559326 0
v 1864.75158691 680.14593506 0
v 1877.34997559 547.07507324 0
v 274.2003479 91.16957855 0
v 1927.74365234 12.42942238 0
v 258.45233154 286.44515991 0
v 274.2003479 286.44515991 0
v 661.60192871 75.42154694 0
v 661.60192871 91.16957855 0
v 861.60192871 75.42154694 0
v 1258.45227051 75.42154694 0
v 1258.45227051 91.16957855 0
v 1260.02709961 75.42154694 0
v 1458.45227051 75.42154694 0
v 1849.00354004 547.07507324 0
v 1849.00354004 680.14593506 0
v 274.2003479 683.29559326 0
v 258.45233154 680.14593506 0
v 274.2003479 543.92547607 0
v 274.2003479 680.14593506 0
v 274.2003479 547.07507324 0
usemtl mat0
f 363 364 365
f 364 363 366
f 366 363 367
f 368 369 370
f 371 372 373
f 374 375 376
f 377 378 379
f 380 377 381
f 382 383 384
f 383 382 385
f 385 382 380
f 386 387 388
f 387 386 389
f 388 387 390
f 388 390 365
f 390 387 391
f 387 389 392
f 392 389 393
f 393 389 394
f 394 389 395
f 395 389 396
f 388 397 398
f 397 388 365
f 397 365 399
f 399 365 364
f 397 399 400
f 398 397 401
f 401 397 402
f 398 401 369
f 398 369 403
f 403 369 368
f 398 403 372
f 398 372 371
f 398 371 404
f 404 371 405
f 398 404 406
f 398 406 375
f 398 375 407
f 407 375 374
f 398 407 378
f 398 378 377
f 398 377 380
f 398 380 382
f 398 382 396
f 398 396 389
f 395 408 409
f 408 395 396
f 410 391 387
f 390 411 412
f 411 390 391
f 412 411 413
f 412 413 414
# Vertices: 52, normals: 0, texture coordinates: 0, faces: 52

o obj11
v 1458.71228027 482.90185547 0
v 1458.45227051 110.06721497 0
v 1458.08654785 482.08648682 0
v 1461.60192871 110.06721497 0
v 1459.10559082 483.85140991 0
v 1459.23974609 484.87036133 0
v 1451.36572266 484.87036133 0
v 1458.45227051 94.31918335 0
v 1261.60192871 94.31918335 0
v 1451.49987793 483.85140991 0
v 1451.89318848 482.90185547 0
v 1452.51879883 482.08648682 0
v 1453.33422852 481.46081543 0
v 1454.28369141 481.06750488 0
v 1455.30273438 480.93334961 0
v 1456.32165527 481.06750488 0
v 1457.27124023 481.46081543 0
v 1836.01135254 875.42156982 0
v 1063.17675781 602.77325439 0
v 1063.17675781 875.42156982 0
v 1092.17114258 598.95611572 0
v 1120.65710449 587.15686035 0
v 1145.11853027 568.38690186 0
v 1161.47155762 547.07507324 0
v 1163.88842773 543.92547607 0
v 1175.68762207 515.4395752 0
v 1179.7121582 484.87036133 0
v 1452.51879883 487.65426636 0
v 1451.89318848 486.83886719 0
v 1258.45227051 110.06721497 0
v 1261.60192871 110.06721497 0
v 1451.49987793 485.88934326 0
v 1453.33422852 488.27990723 0
v 1454.28369141 488.67321777 0
v 1455.30273438 488.80737305 0
v 1456.32165527 488.67321777 0
v 1457.27124023 488.27990723 0
v 1458.08654785 487.65426636 0
v 1458.71228027 486.83886719 0
v 1459.10559082 485.88934326 0
v 1669.09838867 681.34863281 0
v 1651.72729492 656.78222656 0
v 1637.24450684 630.409729 0
v 1625.83557129 602.5690918 0
v 1461.60192871 94.31918335 0
v 1617.64672852 573.61737061 0
v 1612.78308105 543.92547607 0
v 1608.84606934 484.87036133 0
v 1608.98022461 485.88934326 0
v 1609.37353516 486.83886719 0
v 1609.99914551 487.65426636 0
v 1610.8145752 488.27990723 0
v 1611.76403809 488.67321777 0
v 1613.2989502 547.07507324 0
v 1689.13500977 703.79400635 0
v 1711.58032227 723.83062744 0
v 1736.14672852 741.20172119 0
v 1762.51928711 755.68450928 0
v 1790.35986328 767.09344482 0
v 1819.31164551 775.2822876 0
v 1836.09558105 874.13684082 0
v 1845.85388184 779.63000488 0
v 1836.34680176 872.87414551 0
v 1836.76062012 871.65496826 0
v 1837.33007812 870.50030518 0
v 1838.04528809 869.42980957 0
v 1838.89416504 868.46185303 0
v 1839.86218262 867.61297607 0
v 1840.93261719 866.89770508 0
v 1842.08728027 866.32824707 0
v 1843.30651855 865.91442871 0
v 1844.56921387 865.66320801 0
v 1845.85388184 865.57904053 0
v 1612.78308105 488.80737305 0
v 1669.09838867 288.39212036 0
v 1836.01135254 94.31918335 0
v 1651.72729492 312.95852661 0
v 1637.24450684 339.33102417 0
v 1625.83557129 367.17160034 0
v 1617.64672852 396.12338257 0
v 1613.2989502 422.66564941 0
v 1612.78308105 425.81524658 0
v 1608.98022461 483.85140991 0
v 1609.37353516 482.90185547 0
v 1609.99914551 482.08648682 0
v 1610.8145752 481.46081543 0
v 1611.76403809 481.06750488 0
v 1612.78308105 480.93334961 0
v 1689.13500977 265.94674683 0
v 1711.58032227 245.91009521 0
v 1736.14672852 228.53903198 0
v 1762.51928711 214.05621338 0
v 1790.35986328 202.64727783 0
v 1819.31164551 194.45848083 0
v 1836.09558105 95.60388947 0
v 1845.85388184 190.11070251 0
v 1836.34680176 96.8666153 0
v 1836.76062012 98.08575439 0
v 1837.33007812 99.240448 0
v 1838.04528809 100.31093597 0
v 1838.89416504 101.27890015 0
v 1839.86218262 102.12778473 0
v 1840.93261719 102.84305573 0
v 1842.08728027 103.41249084 0
v 1843.30651855 103.82633209 0
v 1844.56921387 104.07749939 0
v 1845.85388184 104.16170502 0
v 1092.17114258 370.78463745 0
v 1063.17675781 94.31918335 0
v 1063.17675781 366.96746826 0
v 1258.45227051 94.31918335 0
v 1120.65710449 382.58389282 0
v 1145.11853027 401.3538208 0
v 1161.47155762 422.66564941 0
v 1163.88842773 425.81524658 0
v 1175.68762207 454.30117798 0
usemtl mat0
f 415 416 417
f 416 415 418
f 418 415 419
f 418 419 420
f 421 422 423
f 422 421 424
f 422 424 425
f 422 425 426
f 422 426 427
f 422 427 428
f 422 428 429
f 422 429 430
f 422 430 431
f 422 431 417
f 422 417 416
f 432 433 434
f 433 432 435
f 435 432 436
f 436 432 437
f 437 432 438
f 438 432 439
f 439 432 440
f 440 432 441
f 441 432 442
f 441 442 443
f 441 443 444
f 444 443 445
f 445 443 423
f 423 443 446
f 423 446 421
f 442 432 447
f 447 432 448
f 448 432 449
f 449 432 450
f 450 432 451
f 451 432 452
f 452 432 453
f 453 432 454
f 454 432 420
f 420 432 455
f 420 455 456
f 420 456 457
f 420 457 458
f 420 458 418
f 418 458 459
f 459 458 460
f 459 460 461
f 459 461 462
f 462 461 463
f 463 461 464
f 464 461 465
f 465 461 466
f 466 461 467
f 461 460 468
f 455 432 469
f 469 432 470
f 470 432 471
f 471 432 472
f 472 432 473
f 473 432 474
f 474 432 475
f 474 475 476
f 476 475 477
f 476 477 478
f 476 478 479
f 476 479 480
f 476 480 481
f 476 481 482
f 476 482 483
f 476 483 484
f 476 484 485
f 476 485 486
f 476 486 487
f 488 467 461
f 459 489 490
f 489 459 491
f 491 459 492
f 492 459 493
f 493 459 494
f 494 459 495
f 495 459 496
f 496 459 462
f 496 462 497
f 496 497 498
f 496 498 499
f 496 499 500
f 496 500 501
f 496 501 502
f 490 489 503
f 490 503 504
f 490 504 505
f 490 505 506
f 490 506 507
f 490 507 508
f 490 508 509
f 509 508 510
f 509 510 511
f 511 510 512
f 512 510 513
f 513 510 514
f 514 510 515
f 515 510 516
f 516 510 517
f 517 510 518
f 518 510 519
f 519 510 520
f 520 510 521
f 522 523 524
f 523 522 525
f 525 522 526
f 525 526 527
f 525 527 528
f 525 528 529
f 525 529 530
f 525 530 441
f 525 441 444
# Vertices: 116, normals: 0, texture coordinates: 0, faces: 116

o obj12
v 1849.00354004 543.92547607 0
v 1845.85388184 425.81524658 0
v 1845.85388184 543.92547607 0
v 1849.00354004 425.81524658 0
v 1849.00354004 484.87036133 0
usemtl mat0
f 531 532 533
f 532 531 534
f 534 531 535
# Vertices: 5, normals: 0, texture coordinates: 0, faces: 3

o obj13
v 1845.85388184 425.81524658 0
v 1845.85388184 422.66564941 82.67716217
v 1845.85388184 422.66564941 0
v 1845.85388184 425.81524658 79.52755737
v 1845.85388184 547.07507324 0
v 1845.85388184 543.92547607 79.52755737
v 1845.85388184 543.92547607 0
v 1845.85388184 547.07507324 82.67716217
usemtl mat0
f 536 537 538
f 537 536 539
f 540 541 542
f 539 543 537
f 543 539 541
f 543 541 540
# Vertices: 8, normals: 0, texture coordinates: 0, faces: 6

o obj14
v 1875.77514648 425.81524658 2.36220479
v 1849.00354004 425.81524658 0
v 1875.77514648 425.81524658 0
v 1845.85388184 425.81524658 0
v 1849.00354004 425.81524658 2.36220479
v 1845.85388184 425.81524658 79.52755737
v 1849.00354004 425.81524658 79.52755737
usemtl mat0
f 544 545 546
f 545 544 547
f 547 544 548
f 547 548 549
f 549 548 550
# Vertices: 7, normals: 0, texture coordinates: 0, faces: 5

o obj15
v 1845.85388184 422.66564941 82.67716217
v 1849.00354004 422.66564941 0
v 1845.85388184 422.66564941 0
v 1849.00354004 422.66564941 2.36220479
v 1877.34997559 422.66564941 0
v 1849.00354004 422.66564941 80.70866394
v 1868.68859863 422.66564941 80.70866394
v 1868.68859863 422.66564941 82.67716217
v 1877.34997559 422.66564941 2.36220479
usemtl mat0
f 551 552 553
f 552 551 554
f 552 554 555
f 554 551 556
f 556 551 557
f 557 551 558
f 559 555 554
# Vertices: 9, normals: 0, texture coordinates: 0, faces: 7

o obj16
v 1868.68859863 547.07507324 82.67716217
v 1849.00354004 547.07507324 80.70866394
v 1868.68859863 547.07507324 80.70866394
v 1877.34997559 547.07507324 2.36220479
v 1849.00354004 547.07507324 0
v 1877.34997559 547.07507324 0
v 1845.85388184 547.07507324 0
v 1849.00354004 547.07507324 2.36220479
v 1845.85388184 547.07507324 82.67716217
usemtl mat0
f 560 561 562
f 563 564 565
f 564 563 566
f 566 563 567
f 566 567 568
f 568 567 561
f 568 561 560
# Vertices: 9, normals: 0, texture coordinates: 0, faces: 7

o obj17
v 1877.34997559 424.63415527 2.36220479
v 1877.34997559 422.66564941 0
v 1877.34997559 422.66564941 2.36220479
v 1877.34997559 547.07507324 0
v 1877.34997559 545.10656738 2.36220479
v 1877.34997559 547.07507324 2.36220479
usemtl mat0
f 569 570 571
f 570 569 572
f 572 569 573
f 572 573 574
# Vertices: 6, normals: 0, texture coordinates: 0, faces: 4

o obj18
v 1875.77514648 543.92547607 2.36220479
v 1875.77514648 543.92547607 0
v 1849.00354004 543.92547607 2.36220479
v 1845.85388184 543.92547607 79.52755737
v 1849.00354004 543.92547607 0
v 1845.85388184 543.92547607 0
v 1849.00354004 543.92547607 79.52755737
usemtl mat0
f 575 576 577
f 578 579 580
f 579 578 577
f 579 577 576
f 577 578 581
# Vertices: 7, normals: 0, texture coordinates: 0, faces: 5

o obj19
v 1877.34997559 547.07507324 2.36220479
v 1849.00354004 543.92547607 2.36220479
v 1849.00354004 547.07507324 2.36220479
v 1875.77514648 543.92547607 2.36220479
v 1875.77514648 425.81524658 2.36220479
v 1877.34997559 424.63415527 2.36220479
v 1877.34997559 545.10656738 2.36220479
v 1849.00354004 422.66564941 2.36220479
v 1849.00354004 425.81524658 2.36220479
v 1877.34997559 422.66564941 2.36220479
usemtl mat0
f 582 583 584
f 583 582 585
f 585 582 586
f 586 582 587
f 587 582 588
f 586 589 590
f 589 586 591
f 591 586 587
# Vertices: 10, normals: 0, texture coordinates: 0, faces: 8

o obj20
v 1845.85388184 547.07507324 82.67716217
v 1849.00354004 545.10656738 82.67716217
v 1845.85388184 422.66564941 82.67716217
v 1868.68859863 547.07507324 82.67716217
v 1868.2947998 545.10656738 82.67716217
v 1868.68859863 545.10656738 82.67716217
v 1849.00354004 424.63415527 82.67716217
v 1868.68859863 422.66564941 82.67716217
v 1868.2947998 424.63415527 82.67716217
v 1868.68859863 424.63415527 82.67716217
usemtl mat0
f 592 593 594
f 593 592 595
f 593 595 596
f 596 595 597
f 594 598 599
f 598 594 593
f 599 598 600
f 599 600 601
# Vertices: 10, normals: 0, texture coordinates: 0, faces: 8

o obj21
v 1849.00354004 425.81524658 79.52755737
v 1845.85388184 543.92547607 79.52755737
v 1845.85388184 425.81524658 79.52755737
v 1849.00354004 543.92547607 79.52755737
usemtl mat0
f 602 603 604
f 603 602 605
# Vertices: 4, normals: 0, texture coordinates: 0, faces: 2

o obj22
v 1875.77514648 543.92547607 0
v 1875.77514648 425.81524658 2.36220479
v 1875.77514648 425.81524658 0
v 1875.77514648 543.92547607 2.36220479
usemtl mat0
f 606 607 608
f 607 606 609
# Vertices: 4, normals: 0, texture coordinates: 0, faces: 2

o obj23
v 1875.77514648 543.92547607 0
v 1849.00354004 484.87036133 0
v 1849.00354004 543.92547607 0
v 1849.00354004 425.81524658 0
v 1875.77514648 425.81524658 0
usemtl mat0
f 610 611 612
f 611 610 613
f 613 610 614
# Vertices: 5, normals: 0, texture coordinates: 0, faces: 3

o obj24
v 1849.00354004 545.10656738 82.67716217
v 1849.00354004 424.63415527 80.70866394
v 1849.00354004 424.63415527 82.67716217
v 1849.00354004 425.81524658 79.52755737
v 1849.00354004 543.92547607 79.52755737
v 1849.00354004 543.92547607 2.36220479
v 1849.00354004 545.10656738 80.70866394
v 1849.00354004 547.07507324 2.36220479
v 1849.00354004 547.07507324 80.70866394
v 1849.00354004 422.66564941 2.36220479
v 1849.00354004 422.66564941 80.70866394
v 1849.00354004 425.81524658 2.36220479
usemtl mat0
f 615 616 617
f 616 615 618
f 618 615 619
f 619 615 620
f 620 615 621
f 620 621 622
f 622 621 623
f 616 624 625
f 624 616 626
f 626 616 618
# Vertices: 12, normals: 0, texture coordinates: 0, faces: 10

o obj25
v 1868.68859863 424.63415527 82.67716217
v 1868.68859863 422.66564941 80.70866394
v 1868.68859863 422.66564941 82.67716217
v 1868.68859863 424.63415527 80.70866394
v 1868.68859863 424.63415527 81.69291687
usemtl mat0
f 627 628 629
f 628 627 630
f 630 627 631
# Vertices: 5, normals: 0, texture coordinates: 0, faces: 3

o obj26
v 1868.68859863 424.63415527 81.69291687
v 1849.00354004 424.63415527 80.70866394
v 1868.68859863 424.63415527 80.70866394
v 1868.2947998 424.63415527 81.69291687
v 1849.00354004 424.63415527 82.67716217
v 1868.2947998 424.63415527 82.67716217
usemtl mat0
f 632 633 634
f 633 632 635
f 633 635 636
f 636 635 637
# Vertices: 6, normals: 0, texture coordinates: 0, faces: 4

o obj27
v 1868.68859863 422.66564941 80.70866394
v 1849.00354004 424.63415527 80.70866394
v 1849.00354004 422.66564941 80.70866394
v 1868.68859863 424.63415527 80.70866394
usemtl mat0
f 638 639 640
f 639 638 641
# Vertices: 4, normals: 0, texture coordinates: 0, faces: 2

o obj28
v 1868.68859863 547.07507324 82.67716217
v 1868.68859863 545.10656738 81.69291687
v 1868.68859863 545.10656738 82.67716217
v 1868.68859863 545.10656738 80.70866394
v 1868.68859863 547.07507324 80.70866394
usemtl mat0
f 642 643 644
f 643 642 645
f 645 642 646
# Vertices: 5, normals: 0, texture coordinates: 0, faces: 3

o obj29
v 1868.68859863 545.10656738 80.70866394
v 1849.00354004 547.07507324 80.70866394
v 1849.00354004 545.10656738 80.70866394
v 1868.68859863 547.07507324 80.70866394
usemtl mat0
f 647 648 649
f 648 647 650
# Vertices: 4, normals: 0, texture coordinates: 0, faces: 2

o obj30
v 1849.00354004 545.10656738 82.67716217
v 1868.68859863 545.10656738 80.70866394
v 1849.00354004 545.10656738 80.70866394
v 1868.2947998 545.10656738 81.69291687
v 1868.2947998 545.10656738 82.67716217
v 1868.68859863 545.10656738 81.69291687
usemtl mat0
f 651 652 653
f 652 651 654
f 654 651 655
f 656 652 654
# Vertices: 6, normals: 0, texture coordinates: 0, faces: 4

o obj31
v 1849.00354004 422.66564941 80.70866394
v 1877.34997559 422.66564941 2.36220479
v 1849.00354004 422.66564941 2.36220479
v 1868.68859863 422.66564941 80.70866394
usemtl mat1
f 657 658 659
f 658 657 660
# Vertices: 4, normals: 0, texture coordinates: 0, faces: 2

o obj32
v 1868.68859863 424.63415527 80.70866394
v 1877.34997559 422.66564941 2.36220479
v 1868.68859863 422.66564941 80.70866394
v 1877.34997559 424.63415527 2.36220479
usemtl mat1
f 661 662 663
f 662 661 664
# Vertices: 4, normals: 0, texture coordinates: 0, faces: 2

o obj33
v 1868.68859863 547.07507324 80.70866394
v 1849.00354004 547.07507324 2.36220479
v 1877.34997559 547.07507324 2.36220479
v 1849.00354004 547.07507324 80.70866394
usemtl mat1
f 665 666 667
f 666 665 668
# Vertices: 4, normals: 0, texture coordinates: 0, faces: 2

o obj34
v 1868.68859863 547.07507324 80.70866394
v 1877.34997559 545.10656738 2.36220479
v 1868.68859863 545.10656738 80.70866394
v 1877.34997559 547.07507324 2.36220479
usemtl mat0
f 669 670 671
f 670 669 672
# Vertices: 4, normals: 0, texture coordinates: 0, faces: 2

o obj35
v 1868.2947998 545.10656738 82.67716217
v 1849.00354004 424.63415527 82.67716217
v 1849.00354004 545.10656738 82.67716217
v 1868.2947998 424.63415527 82.67716217
usemtl mat1
f 673 674 675
f 674 673 676
# Vertices: 4, normals: 0, texture coordinates: 0, faces: 2

o obj36
v 1868.68859863 545.10656738 81.69291687
v 1868.68859863 424.63415527 82.67716217
v 1868.68859863 424.63415527 81.69291687
v 1868.68859863 545.10656738 82.67716217
usemtl mat1
f 677 678 679
f 678 677 680
# Vertices: 4, normals: 0, texture coordinates: 0, faces: 2

o obj37
v 1868.2947998 545.10656738 82.67716217
v 1868.2947998 424.63415527 81.69291687
v 1868.2947998 424.63415527 82.67716217
v 1868.2947998 545.10656738 81.69291687
usemtl mat1
f 681 682 683
f 682 681 684
# Vertices: 4, normals: 0, texture coordinates: 0, faces: 2

o obj38
v 1868.68859863 545.10656738 81.69291687
v 1868.2947998 424.63415527 81.69291687
v 1868.2947998 545.10656738 81.69291687
v 1868.68859863 424.63415527 81.69291687
usemtl mat1
f 685 686 687
f 686 685 688
# Vertices: 4, normals: 0, texture coordinates: 0, faces: 2

o obj39
v 1868.68859863 424.63415527 82.67716217
v 1868.2947998 424.63415527 81.69291687
v 1868.68859863 424.63415527 81.69291687
v 1868.2947998 424.63415527 82.67716217
usemtl mat0
f 689 690 691
f 690 689 692
# Vertices: 4, normals: 0, texture coordinates: 0, faces: 2

o obj40
v 1868.2947998 545.10656738 82.67716217
v 1868.68859863 545.10656738 81.69291687
v 1868.2947998 545.10656738 81.69291687
v 1868.68859863 545.10656738 82.67716217
usemtl mat0
f 693 694 695
f 694 693 696
# Vertices: 4, normals: 0, texture coordinates: 0, faces: 2

o obj41
v 1868.68859863 545.10656738 82.67716217
v 1868.2947998 424.63415527 82.67716217
v 1868.2947998 545.10656738 82.67716217
v 1868.68859863 424.63415527 82.67716217
usemtl mat0
f 697 698 699
f 698 697 700
# Vertices: 4, normals: 0, texture coordinates: 0, faces: 2

o obj42
v 1868.68859863 545.10656738 81.69291687
v 1868.68859863 424.63415527 80.70866394
v 1868.68859863 424.63415527 81.69291687
v 1868.68859863 545.10656738 80.70866394
usemtl mat1
f 701 702 703
f 702 701 704
# Vertices: 4, normals: 0, texture coordinates: 0, faces: 2

o obj43
v 1868.68859863 545.10656738 80.70866394
v 1877.34997559 424.63415527 2.36220479
v 1868.68859863 424.63415527 80.70866394
v 1877.34997559 545.10656738 2.36220479
usemtl mat1
f 705 706 707
f 706 705 708
# Vertices: 4, normals: 0, texture coordinates: 0, faces: 2

o obj44
v 242.70429993 547.07507324 0
v 242.70429993 422.66564941 2.36220479
v 242.70429993 422.66564941 0
v 242.70429993 424.63415527 2.36220479
v 242.70429993 545.10656738 2.36220479
v 242.70429993 547.07507324 2.36220479
usemtl mat0
f 709 710 711
f 710 709 712
f 712 709 713
f 713 709 714
# Vertices: 6, normals: 0, texture coordinates: 0, faces: 4

o obj45
v 244.27909851 425.81524658 2.36220479
v 244.27909851 425.81524658 0
v 271.05075073 425.81524658 2.36220479
v 274.2003479 425.81524658 0
v 274.2003479 425.81524658 79.52755737
v 271.05075073 425.81524658 79.52755737
usemtl mat0
f 715 716 717
f 718 717 716
f 717 718 719
f 717 719 720
# Vertices: 6, normals: 0, texture coordinates: 0, faces: 4

o obj46
v 274.2003479 547.07507324 82.67716217
v 271.05075073 547.07507324 0
v 274.2003479 547.07507324 0
v 271.05075073 547.07507324 2.36220479
v 258.45233154 547.07507324 0
v 242.70429993 547.07507324 0
v 271.05075073 547.07507324 80.70866394
v 251.3657074 547.07507324 80.70866394
v 251.3657074 547.07507324 82.67716217
v 242.70429993 547.07507324 2.36220479
usemtl mat0
f 721 722 723
f 722 721 724
f 722 724 725
f 725 724 726
f 724 721 727
f 727 721 728
f 728 721 729
f 730 726 724
# Vertices: 10, normals: 0, texture coordinates: 0, faces: 8

o obj47
v 244.27909851 543.92547607 2.36220479
v 274.2003479 543.92547607 0
v 244.27909851 543.92547607 0
v 271.05075073 543.92547607 2.36220479
v 274.2003479 543.92547607 79.52755737
v 271.05075073 543.92547607 79.52755737
usemtl mat0
f 731 732 733
f 732 731 734
f 732 734 735
f 735 734 736
# Vertices: 6, normals: 0, texture coordinates: 0, faces: 4

o obj48
v 271.05075073 425.81524658 79.52755737
v 274.2003479 543.92547607 79.52755737
v 271.05075073 543.92547607 79.52755737
v 274.2003479 425.81524658 79.52755737
usemtl mat0
f 737 738 739
f 738 737 740
# Vertices: 4, normals: 0, texture coordinates: 0, faces: 2

o obj49
v 274.2003479 422.66564941 82.67716217
v 274.2003479 425.81524658 79.52755737
v 274.2003479 422.66564941 0
v 274.2003479 547.07507324 82.67716217
v 274.2003479 425.81524658 0
v 274.2003479 543.92547607 79.52755737
v 274.2003479 547.07507324 0
v 274.2003479 543.92547607 0
usemtl mat0
f 741 742 743
f 742 741 744
f 743 742 745
f 742 744 746
f 746 747 748
f 747 746 744
# Vertices: 8, normals: 0, texture coordinates: 0, faces: 6

o obj50
v 251.3657074 422.66564941 82.67716217
v 271.05075073 422.66564941 80.70866394
v 251.3657074 422.66564941 80.70866394
v 242.70429993 422.66564941 2.36220479
v 271.05075073 422.66564941 0
v 242.70429993 422.66564941 0
v 274.2003479 422.66564941 0
v 271.05075073 422.66564941 2.36220479
v 274.2003479 422.66564941 82.67716217
usemtl mat0
f 749 750 751
f 752 753 754
f 753 752 755
f 755 752 756
f 755 756 757
f 757 756 750
f 757 750 749
# Vertices: 9, normals: 0, texture coordinates: 0, faces: 7

o obj51
v 244.27909851 543.92547607 0
v 274.2003479 425.81524658 0
v 244.27909851 425.81524658 0
v 274.2003479 543.92547607 0
usemtl mat0
f 758 759 760
f 759 758 761
# Vertices: 4, normals: 0, texture coordinates: 0, faces: 2

o obj52
v 271.05075073 422.66564941 80.70866394
v 251.3657074 424.63415527 80.70866394
v 251.3657074 422.66564941 80.70866394
v 271.05075073 424.63415527 80.70866394
usemtl mat0
f 762 763 764
f 763 762 765
# Vertices: 4, normals: 0, texture coordinates: 0, faces: 2

o obj53
v 251.3657074 422.66564941 80.70866394
v 271.05075073 422.66564941 2.36220479
v 242.70429993 422.66564941 2.36220479
v 271.05075073 422.66564941 80.70866394
usemtl mat1
f 766 767 768
f 767 766 769
# Vertices: 4, normals: 0, texture coordinates: 0, faces: 2

o obj54
v 274.2003479 547.07507324 82.67716217
v 251.3657074 545.10656738 82.67716217
v 251.3657074 547.07507324 82.67716217
v 251.75941467 545.10656738 82.67716217
v 271.05075073 545.10656738 82.67716217
v 271.05075073 424.63415527 82.67716217
v 251.3657074 424.63415527 82.67716217
v 274.2003479 422.66564941 82.67716217
v 251.3657074 422.66564941 82.67716217
v 251.75941467 424.63415527 82.67716217
usemtl mat0
f 770 771 772
f 771 770 773
f 773 770 774
f 774 770 775
f 776 777 778
f 777 776 779
f 777 779 775
f 777 775 770
# Vertices: 10, normals: 0, texture coordinates: 0, faces: 8

o obj55
v 271.05075073 547.07507324 80.70866394
v 242.70429993 547.07507324 2.36220479
v 271.05075073 547.07507324 2.36220479
v 251.3657074 547.07507324 80.70866394
usemtl mat1
f 780 781 782
f 781 780 783
# Vertices: 4, normals: 0, texture coordinates: 0, faces: 2

o obj56
v 251.75941467 545.10656738 82.67716217
v 271.05075073 424.63415527 82.67716217
v 251.75941467 424.63415527 82.67716217
v 271.05075073 545.10656738 82.67716217
usemtl mat1
f 784 785 786
f 785 784 787
# Vertices: 4, normals: 0, texture coordinates: 0, faces: 2

o obj57
v 271.05075073 424.63415527 82.67716217
v 251.3657074 424.63415527 80.70866394
v 271.05075073 424.63415527 80.70866394
v 251.75941467 424.63415527 81.69291687
v 251.75941467 424.63415527 82.67716217
v 251.3657074 424.63415527 81.69291687
usemtl mat0
f 788 789 790
f 789 788 791
f 791 788 792
f 793 789 791
# Vertices: 6, normals: 0, texture coordinates: 0, faces: 4

o obj58
v 251.3657074 545.10656738 82.67716217
v 251.3657074 424.63415527 81.69291687
v 251.3657074 424.63415527 82.67716217
v 251.3657074 545.10656738 81.69291687
usemtl mat1
f 794 795 796
f 795 794 797
# Vertices: 4, normals: 0, texture coordinates: 0, faces: 2

o obj59
v 242.70429993 422.66564941 2.36220479
v 242.70429993 424.63415527 2.36220479
v 242.70429993 545.10656738 2.36220479
v 271.05075073 547.07507324 2.36220479
v 242.70429993 547.07507324 2.36220479
v 244.27909851 543.92547607 2.36220479
v 244.27909851 425.81524658 2.36220479
v 271.05075073 543.92547607 2.36220479
v 271.05075073 422.66564941 2.36220479
v 271.05075073 425.81524658 2.36220479
usemtl mat0
f 798 799 800
f 801 800 802
f 800 801 803
f 800 803 798
f 798 803 804
f 803 801 805
f 804 806 798
f 806 804 807
# Vertices: 10, normals: 0, texture coordinates: 0, faces: 8

o obj60
v 242.70429993 422.66564941 2.36220479
v 251.3657074 424.63415527 80.70866394
v 251.3657074 422.66564941 80.70866394
v 242.70429993 424.63415527 2.36220479
usemtl mat0
f 808 809 810
f 809 808 811
# Vertices: 4, normals: 0, texture coordinates: 0, faces: 2

o obj61
v 251.3657074 424.63415527 80.70866394
v 251.3657074 422.66564941 82.67716217
v 251.3657074 422.66564941 80.70866394
v 251.3657074 424.63415527 82.67716217
v 251.3657074 424.63415527 81.69291687
usemtl mat0
f 812 813 814
f 813 812 815
f 815 812 816
# Vertices: 5, normals: 0, texture coordinates: 0, faces: 3

o obj62
v 251.75941467 545.10656738 81.69291687
v 251.75941467 424.63415527 82.67716217
v 251.75941467 424.63415527 81.69291687
v 251.75941467 545.10656738 82.67716217
usemtl mat1
f 817 818 819
f 818 817 820
# Vertices: 4, normals: 0, texture coordinates: 0, faces: 2

o obj63
v 251.3657074 547.07507324 80.70866394
v 251.3657074 545.10656738 81.69291687
v 251.3657074 545.10656738 80.70866394
v 251.3657074 545.10656738 82.67716217
v 251.3657074 547.07507324 82.67716217
usemtl mat0
f 821 822 823
f 822 821 824
f 824 821 825
# Vertices: 5, normals: 0, texture coordinates: 0, faces: 3

o obj64
v 251.3657074 545.10656738 82.67716217
v 251.75941467 424.63415527 82.67716217
v 251.3657074 424.63415527 82.67716217
v 251.75941467 545.10656738 82.67716217
usemtl mat0
f 826 827 828
f 827 826 829
# Vertices: 4, normals: 0, texture coordinates: 0, faces: 2

o obj65
v 251.75941467 424.63415527 82.67716217
v 251.3657074 424.63415527 81.69291687
v 251.75941467 424.63415527 81.69291687
v 251.3657074 424.63415527 82.67716217
usemtl mat0
f 830 831 832
f 831 830 833
# Vertices: 4, normals: 0, texture coordinates: 0, faces: 2

o obj66
v 251.3657074 545.10656738 80.70866394
v 251.3657074 424.63415527 81.69291687
v 251.3657074 424.63415527 80.70866394
v 251.3657074 545.10656738 81.69291687
usemtl mat1
f 834 835 836
f 835 834 837
# Vertices: 4, normals: 0, texture coordinates: 0, faces: 2

o obj67
v 242.70429993 424.63415527 2.36220479
v 251.3657074 545.10656738 80.70866394
v 251.3657074 424.63415527 80.70866394
v 242.70429993 545.10656738 2.36220479
usemtl mat1
f 838 839 840
f 839 838 841
# Vertices: 4, normals: 0, texture coordinates: 0, faces: 2

o obj68
v 251.3657074 545.10656738 81.69291687
v 271.05075073 545.10656738 80.70866394
v 251.3657074 545.10656738 80.70866394
v 251.75941467 545.10656738 81.69291687
v 271.05075073 545.10656738 82.67716217
v 251.75941467 545.10656738 82.67716217
usemtl mat0
f 842 843 844
f 843 842 845
f 843 845 846
f 846 845 847
# Vertices: 6, normals: 0, texture coordinates: 0, faces: 4

o obj69
v 242.70429993 545.10656738 2.36220479
v 251.3657074 547.07507324 80.70866394
v 251.3657074 545.10656738 80.70866394
v 242.70429993 547.07507324 2.36220479
usemtl mat1
f 848 849 850
f 849 848 851
# Vertices: 4, normals: 0, texture coordinates: 0, faces: 2

o obj70
v 251.3657074 545.10656738 82.67716217
v 251.75941467 545.10656738 81.69291687
v 251.3657074 545.10656738 81.69291687
v 251.75941467 545.10656738 82.67716217
usemtl mat0
f 852 853 854
f 853 852 855
# Vertices: 4, normals: 0, texture coordinates: 0, faces: 2

o obj71
v 251.3657074 545.10656738 80.70866394
v 271.05075073 547.07507324 80.70866394
v 251.3657074 547.07507324 80.70866394
v 271.05075073 545.10656738 80.70866394
usemtl mat0
f 856 857 858
f 857 856 859
# Vertices: 4, normals: 0, texture coordinates: 0, faces: 2

o obj72
v 271.05075073 547.07507324 2.36220479
v 271.05075073 545.10656738 80.70866394
v 271.05075073 543.92547607 2.36220479
v 271.05075073 547.07507324 80.70866394
v 271.05075073 425.81524658 2.36220479
v 271.05075073 422.66564941 80.70866394
v 271.05075073 422.66564941 2.36220479
v 271.05075073 424.63415527 80.70866394
v 271.05075073 424.63415527 82.67716217
v 271.05075073 425.81524658 79.52755737
v 271.05075073 545.10656738 82.67716217
v 271.05075073 543.92547607 79.52755737
usemtl mat0
f 860 861 862
f 861 860 863
f 864 865 866
f 865 864 867
f 867 864 868
f 868 864 869
f 868 869 870
f 870 869 871
f 870 871 862
f 870 862 861
# Vertices: 12, normals: 0, texture coordinates: 0, faces: 10

o obj73
v 244.27909851 543.92547607 2.36220479
v 244.27909851 425.81524658 0
v 244.27909851 425.81524658 2.36220479
v 244.27909851 543.92547607 0
usemtl mat0
f 872 873 874
f 873 872 875
# Vertices: 4, normals: 0, texture coordinates: 0, faces: 2

o obj74
v 251.3657074 545.10656738 81.69291687
v 251.75941467 424.63415527 81.69291687
v 251.3657074 424.63415527 81.69291687
v 251.75941467 545.10656738 81.69291687
usemtl mat1
f 876 877 878
f 877 876 879
# Vertices: 4, normals: 0, texture coordinates: 0, faces: 2

o obj75
v 1063.57043457 488.27990723 0
v 1063.17675781 481.29772949 0
v 1063.17675781 488.44299316 0
v 1063.57043457 481.46081543 0
v 1064.38586426 487.65426636 0
v 1064.38586426 482.08648682 0
v 1065.01147461 486.83886719 0
v 1065.01147461 482.90185547 0
v 1065.40478516 485.88934326 0
v 1065.40478516 483.85140991 0
v 1065.53894043 484.87036133 0
v 1864.75158691 683.29559326 0
v 1849.00354004 680.14593506 0
v 1849.00354004 683.29559326 0
v 1864.75158691 680.14593506 0
v 274.2003479 878.57116699 0
v 277.34997559 865.57904053 0
v 274.2003479 683.29559326 0
v 287.19247437 875.42156982 0
v 1849.00354004 878.57116699 0
v 274.2003479 680.14593506 0
v 274.2003479 547.07507324 0
v 274.2003479 425.81524658 0
v 274.2003479 422.66564941 0
v 278.63467407 865.66320801 0
v 279.8973999 865.91442871 0
v 281.11654663 866.32824707 0
v 282.27120972 866.89770508 0
v 283.34170532 867.61297607 0
v 284.30966187 868.46185303 0
v 285.15856934 869.42980957 0
v 285.87384033 870.50030518 0
v 286.44326782 871.65496826 0
v 286.8571167 872.87414551 0
v 287.10827637 874.13684082 0
v 1060.02709961 875.42156982 0
v 1063.17675781 875.42156982 0
v 1060.02709961 602.77325439 0
v 1060.02709961 599.59649658 0
v 1060.02709961 488.44299316 0
v 1060.02709961 481.29772949 0
v 1060.02709961 370.14425659 0
v 1060.02709961 366.96746826 0
v 1060.02709961 94.31918335 0
v 1061.60192871 91.16957855 0
v 1836.01135254 875.42156982 0
v 1836.09558105 874.13684082 0
v 1836.34680176 872.87414551 0
v 1836.76062012 871.65496826 0
v 1837.33007812 870.50030518 0
v 1838.04528809 869.42980957 0
v 1838.89416504 868.46185303 0
v 1839.86218262 867.61297607 0
v 1840.93261719 866.89770508 0
v 1842.08728027 866.32824707 0
v 1843.30651855 865.91442871 0
v 1844.56921387 865.66320801 0
v 1845.85388184 865.57904053 0
v 1845.85388184 779.63000488 0
v 1845.85388184 776.43847656 0
v 1845.85388184 547.07507324 0
v 1849.00354004 547.07507324 0
v 1617.64672852 573.61737061 0
v 1615.93261719 543.66925049 0
v 1613.2989502 547.07507324 0
v 1616.49047852 547.07507324 0
v 1620.72607422 572.9319458 0
v 1625.83557129 602.5690918 0
v 1628.81762695 601.54003906 0
v 1637.24450684 630.409729 0
v 1640.09118652 629.0501709 0
v 1651.72729492 656.78222656 0
v 1654.40197754 655.10961914 0
v 1669.09838867 681.34863281 0
v 1671.56689453 679.38439941 0
v 1689.13500977 703.79400635 0
v 1691.36572266 701.56329346 0
v 1711.58032227 723.83062744 0
v 1713.54455566 721.36212158 0
v 1736.14672852 741.20172119 0
v 1737.81933594 738.52697754 0
v 1762.51928711 755.68450928 0
v 1763.87878418 752.83782959 0
v 1790.35986328 767.09344482 0
v 1791.38891602 764.11132812 0
v 1819.31164551 775.2822876 0
v 1819.99707031 772.20294189 0
v 1842.7043457 775.92254639 0
v 1616.19262695 486.83886719 0
v 1615.93261719 482.56311035 0
v 1615.93261719 487.17764282 0
v 1616.19262695 482.90185547 0
v 1616.5859375 485.88934326 0
v 1616.5859375 483.85140991 0
v 1616.72009277 484.87036133 0
v 1849.00354004 422.66564941 0
v 1845.85388184 193.30227661 0
v 1845.85388184 422.66564941 0
v 1845.85388184 190.11070251 0
v 1845.85388184 104.16170502 0
v 1864.75158691 289.5947876 0
v 1849.00354004 286.44515991 0
v 1849.00354004 289.5947876 0
v 1864.75158691 286.44515991 0
v 1836.01135254 94.31918335 0
v 1461.60192871 91.16957855 0
v 1461.60192871 94.31918335 0
v 1849.00354004 91.16957855 0
v 1836.09558105 95.60388947 0
v 1836.34680176 96.8666153 0
v 1836.76062012 98.08575439 0
v 1837.33007812 99.240448 0
v 1838.04528809 100.31093597 0
v 1838.89416504 101.27890015 0
v 1839.86218262 102.12778473 0
v 1840.93261719 102.84305573 0
v 1842.08728027 103.41249084 0
v 1843.30651855 103.82633209 0
v 1844.56921387 104.07749939 0
v 1612.78308105 488.80737305 0
v 1612.78308105 543.92547607 0
v 1612.78308105 480.93334961 0
v 1612.78308105 425.81524658 0
v 1613.2989502 422.66564941 0
v 1615.93261719 426.07150269 0
v 1617.64672852 396.12338257 0
v 1616.49047852 422.66564941 0
v 1620.72607422 396.80877686 0
v 1625.83557129 367.17160034 0
v 1628.81762695 368.20068359 0
v 1637.24450684 339.33102417 0
v 1640.09118652 340.69058228 0
v 1651.72729492 312.95852661 0
v 1654.40197754 314.63113403 0
v 1669.09838867 288.39212036 0
v 1671.56689453 290.35635376 0
v 1689.13500977 265.94674683 0
v 1691.36572266 268.1774292 0
v 1711.58032227 245.91009521 0
v 1713.54455566 248.37863159 0
v 1736.14672852 228.53903198 0
v 1737.81933594 231.21377563 0
v 1762.51928711 214.05621338 0
v 1763.87878418 216.90287781 0
v 1790.35986328 202.64727783 0
v 1791.38891602 205.62937927 0
v 1819.31164551 194.45848083 0
v 1819.99707031 197.53779602 0
v 1842.7043457 193.81820679 0
v 1608.98022461 485.88934326 0
v 1608.98022461 483.85140991 0
v 1608.84606934 484.87036133 0
v 1609.37353516 486.83886719 0
v 1609.37353516 482.90185547 0
v 1609.99914551 487.65426636 0
v 1609.99914551 482.08648682 0
v 1610.8145752 488.27990723 0
v 1610.8145752 481.46081543 0
v 1611.76403809 488.67321777 0
v 1611.76403809 481.06750488 0
v 1461.60192871 110.06721497 0
v 1458.45227051 94.31918335 0
v 1458.45227051 110.06721497 0
v 1458.45227051 91.16957855 0
v 1458.45227051 75.42154694 0
v 1461.60192871 75.42154694 0
v 1261.60192871 91.16957855 0
v 1261.60192871 94.31918335 0
v 1261.60192871 110.06721497 0
v 1258.45227051 94.31918335 0
v 1258.45227051 110.06721497 0
v 1258.45227051 91.16957855 0
v 1258.45227051 75.42154694 0
v 1260.02709961 75.42154694 0
v 1261.60192871 75.42154694 0
v 1063.17675781 94.31918335 0
v 1063.17675781 602.77325439 0
v 1063.17675781 599.59649658 0
v 1063.17675781 370.14425659 0
v 1063.17675781 366.96746826 0
v 511.43978882 488.67321777 0
v 510.4208374 480.93334961 0
v 510.4208374 488.80737305 0
v 511.43978882 481.06750488 0
v 512.38934326 488.27990723 0
v 512.38934326 481.46081543 0
v 513.20471191 487.65426636 0
v 513.20471191 482.08648682 0
v 513.8303833 486.83886719 0
v 513.8303833 482.90185547 0
v 514.22369385 485.88934326 0
v 514.22369385 483.85140991 0
v 514.35784912 484.87036133 0
v 303.89221191 775.2822876 0
v 277.34997559 776.43847656 0
v 277.34997559 779.63000488 0
v 280.49957275 775.92254639 0
v 303.20684814 772.20294189 0
v 331.81494141 764.11132812 0
v 332.84399414 767.09344482 0
v 359.32501221 752.83782959 0
v 360.68457031 755.68450928 0
v 385.38449097 738.52697754 0
v 387.05709839 741.20172119 0
v 409.65924072 721.36212158 0
v 411.62350464 723.83062744 0
v 431.8381958 701.56329346 0
v 434.06887817 703.79400635 0
v 451.63696289 679.38439941 0
v 454.10549927 681.34863281 0
v 468.80181885 655.10961914 0
v 471.4765625 656.78222656 0
v 483.11273193 629.0501709 0
v 485.95941162 630.409729 0
v 494.38623047 601.54003906 0
v 497.36831665 602.5690918 0
v 502.47781372 572.9319458 0
v 505.55712891 573.61737061 0
v 506.71331787 547.07507324 0
v 509.90490723 547.07507324 0
v 507.27120972 543.66925049 0
v 507.27120972 487.17764282 0
v 507.27120972 482.56311035 0
v 507.27120972 426.08099365 0
v 509.88555908 422.66564941 0
v 510.4208374 425.81524658 0
v 510.4208374 543.92547607 0
v 280.49957275 200.16241455 0
v 277.34997559 196.53616333 0
v 277.34997559 199.71710205 0
v 303.64459229 200.25398254 0
v 303.02456665 203.34724426 0
v 331.44866943 210.76234436 0
v 332.41870117 207.76039124 0
v 358.83703613 221.3825531 0
v 360.14437866 218.51138306 0
v 384.82962036 235.0682373 0
v 386.45703125 232.36560059 0
v 409.08465576 251.63946533 0
v 411.01074219 249.1408844 0
v 431.28323364 270.87835693 0
v 433.48269653 268.61669922 0
v 451.13348389 292.53198242 0
v 453.57739258 290.53695679 0
v 468.37445068 316.31561279 0
v 471.03067017 314.61346436 0
v 482.77944946 341.91653442 0
v 485.61306763 340.5296936 0
v 494.15905762 368.99819946 0
v 497.1328125 367.94485474 0
v 502.36367798 397.20452881 0
v 505.43847656 396.49850464 0
v 506.6907959 422.66564941 0
v 506.61798096 485.88934326 0
v 506.61798096 483.85140991 0
v 506.48382568 484.87036133 0
v 507.0112915 486.83886719 0
v 507.0112915 482.90185547 0
v 864.75152588 91.16957855 0
v 864.75152588 94.31918335 0
v 1057.79907227 485.88934326 0
v 1057.79907227 483.85140991 0
v 1057.66491699 484.87036133 0
v 1058.19238281 486.83886719 0
v 1058.19238281 482.90185547 0
v 1058.81799316 487.65426636 0
v 1058.81799316 482.08648682 0
v 1059.63342285 488.27990723 0
v 1059.63342285 481.46081543 0
v 864.75152588 110.06721497 0
v 861.60192871 94.31918335 0
v 861.60192871 110.06721497 0
v 861.60192871 91.16957855 0
v 861.60192871 75.42154694 0
v 864.75152588 75.42154694 0
v 664.75152588 91.16957855 0
v 664.75152588 94.31918335 0
v 664.75152588 110.06721497 0
v 661.60192871 94.31918335 0
v 661.60192871 110.06721497 0
v 661.60192871 91.16957855 0
v 661.60192871 75.42154694 0
v 664.75152588 75.42154694 0
v 274.2003479 289.5947876 0
v 258.45233154 286.44515991 0
v 258.45233154 289.5947876 0
v 274.2003479 286.44515991 0
v 274.2003479 91.16957855 0
v 277.34997559 104.16170502 0
v 287.19247437 94.31918335 0
v 278.63467407 104.07749939 0
v 279.8973999 103.82633209 0
v 281.11654663 103.41249084 0
v 282.27120972 102.84305573 0
v 283.34170532 102.12778473 0
v 284.30966187 101.27890015 0
v 285.15856934 100.31093597 0
v 285.87384033 99.240448 0
v 286.44326782 98.08575439 0
v 286.8571167 96.8666153 0
v 287.10827637 95.60388947 0
v 274.2003479 543.92547607 0
v 258.45233154 680.14593506 0
v 258.45233154 683.29559326 0
usemtl mat0
f 880 881 882
f 881 880 883
f 883 880 884
f 883 884 885
f 885 884 886
f 885 886 887
f 887 886 888
f 887 888 889
f 889 888 890
f 891 892 893
f 892 891 894
f 895 896 897
f 896 895 898
f 898 895 899
f 897 896 900
f 900 896 901
f 901 896 902
f 902 896 903
f 896 898 904
f 904 898 905
f 905 898 906
f 906 898 907
f 907 898 908
f 908 898 909
f 909 898 910
f 910 898 911
f 911 898 912
f 912 898 913
f 913 898 914
f 898 899 915
f 915 899 916
f 915 916 917
f 917 916 918
f 918 916 919
f 919 916 920
f 920 916 921
f 921 916 922
f 922 916 923
f 923 916 924
f 916 899 925
f 925 899 926
f 926 899 927
f 927 899 928
f 928 899 929
f 929 899 930
f 930 899 931
f 931 899 932
f 932 899 933
f 933 899 934
f 934 899 935
f 935 899 936
f 936 899 937
f 937 899 938
f 938 899 939
f 939 899 940
f 940 899 941
f 941 899 893
f 941 893 892
f 942 943 944
f 943 942 945
f 945 942 946
f 946 942 947
f 946 947 948
f 948 947 949
f 948 949 950
f 950 949 951
f 950 951 952
f 952 951 953
f 952 953 954
f 954 953 955
f 954 955 956
f 956 955 957
f 956 957 958
f 958 957 959
f 958 959 960
f 960 959 961
f 960 961 962
f 962 961 963
f 962 963 964
f 964 963 965
f 964 965 966
f 966 965 938
f 966 938 967
f 967 938 939
f 968 969 970
f 969 968 971
f 971 968 972
f 971 972 973
f 973 972 974
f 975 976 977
f 976 975 978
f 978 975 979
f 980 981 982
f 981 980 983
f 984 985 986
f 985 984 987
f 987 984 988
f 987 988 989
f 987 989 990
f 987 990 991
f 987 991 992
f 987 992 993
f 987 993 994
f 987 994 995
f 987 995 996
f 987 996 997
f 987 997 998
f 987 998 979
f 987 979 975
f 987 975 982
f 987 982 981
f 944 999 1000
f 999 944 1001
f 1001 944 1002
f 1002 944 1003
f 1003 944 1004
f 1003 1004 1005
f 1004 944 943
f 1004 943 970
f 1004 970 969
f 1005 1004 1006
f 1005 1006 1007
f 1005 1007 1008
f 1008 1007 1009
f 1008 1009 1010
f 1010 1009 1011
f 1010 1011 1012
f 1012 1011 1013
f 1012 1013 1014
f 1014 1013 1015
f 1014 1015 1016
f 1016 1015 1017
f 1016 1017 1018
f 1018 1017 1019
f 1018 1019 1020
f 1020 1019 1021
f 1020 1021 1022
f 1022 1021 1023
f 1022 1023 1024
f 1024 1023 1025
f 1024 1025 1026
f 1026 1025 1027
f 1026 1027 978
f 978 1027 1028
f 978 1028 976
f 1029 1030 1031
f 1030 1029 1032
f 1030 1032 1033
f 1033 1032 1034
f 1033 1034 1035
f 1035 1034 1036
f 1035 1036 1037
f 1037 1036 1038
f 1037 1038 1039
f 1039 1038 999
f 1039 999 1001
f 1040 1041 1042
f 1041 1040 1043
f 1043 1040 1044
f 1044 1040 1045
f 1045 1040 986
f 1045 986 985
f 1041 1046 1047
f 1046 1041 1043
f 1048 1049 1050
f 1049 1048 1051
f 1051 1048 1052
f 1052 1048 1053
f 1053 1048 1054
f 1054 1048 1047
f 1054 1047 1046
f 924 1055 1051
f 1055 924 916
f 1055 916 1056
f 1055 1056 1057
f 1055 1057 882
f 1055 882 881
f 1055 881 1058
f 1055 1058 1059
f 1051 1055 1049
f 1060 1061 1062
f 1061 1060 1063
f 1063 1060 1064
f 1063 1064 1065
f 1065 1064 1066
f 1065 1066 1067
f 1067 1066 1068
f 1067 1068 1069
f 1069 1068 1070
f 1069 1070 1071
f 1071 1070 1072
f 1073 1074 1075
f 1074 1073 1076
f 1076 1073 1077
f 1077 1073 1078
f 1078 1073 1079
f 1078 1079 1080
f 1080 1079 1081
f 1080 1081 1082
f 1082 1081 1083
f 1082 1083 1084
f 1084 1083 1085
f 1084 1085 1086
f 1086 1085 1087
f 1086 1087 1088
f 1088 1087 1089
f 1088 1089 1090
f 1090 1089 1091
f 1090 1091 1092
f 1092 1091 1093
f 1092 1093 1094
f 1094 1093 1095
f 1094 1095 1096
f 1096 1095 1097
f 1096 1097 1098
f 1098 1097 1099
f 1098 1099 1100
f 1100 1099 1101
f 1101 1099 1102
f 1102 1099 1103
f 1103 1099 1104
f 1104 1099 1105
f 1105 1099 1106
f 1105 1106 1062
f 1105 1062 1061
f 1107 1108 1109
f 1108 1107 1110
f 1110 1107 1111
f 1110 1111 1112
f 1110 1112 1113
f 1113 1112 1114
f 1113 1114 1115
f 1115 1114 1116
f 1115 1116 1117
f 1117 1116 1118
f 1117 1118 1119
f 1119 1118 1120
f 1119 1120 1121
f 1121 1120 1122
f 1121 1122 1123
f 1123 1122 1124
f 1123 1124 1125
f 1125 1124 1126
f 1125 1126 1127
f 1127 1126 1128
f 1127 1128 1129
f 1129 1128 1130
f 1129 1130 1131
f 1131 1130 1132
f 1131 1132 1104
f 1104 1132 1103
f 1133 1134 1135
f 1134 1133 1136
f 1134 1136 1137
f 1137 1136 1101
f 1137 1101 1102
f 923 1138 1139
f 1138 923 924
f 1140 1141 1142
f 1141 1140 1143
f 1141 1143 1144
f 1144 1143 1145
f 1144 1145 1146
f 1146 1145 1147
f 1146 1147 1148
f 1148 1147 919
f 1148 919 920
f 1149 1150 1151
f 1150 1149 1152
f 1152 1149 1153
f 1153 1149 1139
f 1153 1139 1154
f 1154 1139 1138
f 1150 1155 1156
f 1155 1150 1152
f 1157 1158 1159
f 1158 1157 1160
f 1160 1157 1161
f 1161 1157 1162
f 1162 1157 1156
f 1162 1156 1155
f 1163 1164 1165
f 1164 1163 1166
f 1166 1163 903
f 1166 903 1167
f 1167 903 1168
f 1167 1168 1169
f 1167 1169 1160
f 1168 903 896
f 1168 896 1075
f 1168 1075 1074
f 1168 1074 1109
f 1168 1109 1108
f 1169 1168 1170
f 1169 1170 1171
f 1169 1171 1172
f 1169 1172 1173
f 1169 1173 1174
f 1169 1174 1175
f 1169 1175 1176
f 1169 1176 1177
f 1169 1177 1178
f 1169 1178 1179
f 1169 1179 1180
f 1160 1169 1158
f 902 1181 901
f 897 1182 1183
f 1182 897 900
# Vertices: 304, normals: 0, texture coordinates: 0, faces: 308

